<?xml version="1.0" encoding="UTF-8" standalone="no"?>
<!-- Created with Inkscape (http://www.inkscape.org/) -->

<svg
   xmlns:dc="http://purl.org/dc/elements/1.1/"
   xmlns:cc="http://creativecommons.org/ns#"
   xmlns:rdf="http://www.w3.org/1999/02/22-rdf-syntax-ns#"
   xmlns:svg="http://www.w3.org/2000/svg"
   xmlns="http://www.w3.org/2000/svg"
   xmlns:sodipodi="http://sodipodi.sourceforge.net/DTD/sodipodi-0.dtd"
   xmlns:inkscape="http://www.inkscape.org/namespaces/inkscape"
   width="210mm"
   height="297mm"
   viewBox="0 0 210 297"
   version="1.1"
   id="svg8"
   inkscape:version="0.92.2 (30a58d1, 2017-08-07)"
   sodipodi:docname="watercolor.svg">
  <defs
     id="defs2">
    <inkscape:path-effect
       effect="bspline"
       id="path-effect923"
       is_visible="true"
       weight="33.333333"
       steps="2"
       helper_size="0"
       apply_no_weight="true"
       apply_with_weight="true"
       only_selected="false" />
    <inkscape:path-effect
       only_selected="false"
       apply_with_weight="true"
       apply_no_weight="true"
       helper_size="0"
       steps="2"
       weight="33.333333"
       is_visible="true"
       id="path-effect919"
       effect="bspline" />
    <inkscape:path-effect
       only_selected="false"
       apply_with_weight="true"
       apply_no_weight="true"
       helper_size="0"
       steps="2"
       weight="33.333333"
       is_visible="true"
       id="path-effect915"
       effect="bspline" />
    <inkscape:path-effect
       only_selected="false"
       apply_with_weight="true"
       apply_no_weight="true"
       helper_size="0"
       steps="2"
       weight="33.333333"
       is_visible="true"
       id="path-effect907"
       effect="bspline" />
    <inkscape:path-effect
       only_selected="false"
       apply_with_weight="true"
       apply_no_weight="true"
       helper_size="0"
       steps="2"
       weight="33.333333"
       is_visible="true"
       id="path-effect903"
       effect="bspline" />
    <inkscape:path-effect
       effect="bspline"
       id="path-effect899"
       is_visible="true"
       weight="33.333333"
       steps="2"
       helper_size="0"
       apply_no_weight="true"
       apply_with_weight="true"
       only_selected="false" />
    <inkscape:path-effect
       effect="bspline"
       id="path-effect888"
       is_visible="true"
       weight="33.333333"
       steps="2"
       helper_size="0"
       apply_no_weight="true"
       apply_with_weight="true"
       only_selected="false" />
    <inkscape:path-effect
       only_selected="false"
       apply_with_weight="true"
       apply_no_weight="true"
       helper_size="0"
       steps="2"
       weight="33.333333"
       is_visible="true"
       id="path-effect886"
       effect="bspline" />
    <inkscape:path-effect
       effect="bspline"
       id="path-effect861"
       is_visible="true"
       weight="33.333333"
       steps="2"
       helper_size="0"
       apply_no_weight="true"
       apply_with_weight="true"
       only_selected="false" />
    <inkscape:path-effect
       only_selected="false"
       apply_with_weight="true"
       apply_no_weight="true"
       helper_size="0"
       steps="2"
       weight="33.333333"
       is_visible="true"
       id="path-effect857"
       effect="bspline" />
    <inkscape:path-effect
       effect="bspline"
       id="path-effect853"
       is_visible="true"
       weight="33.333333"
       steps="2"
       helper_size="0"
       apply_no_weight="true"
       apply_with_weight="true"
       only_selected="false" />
    <inkscape:path-effect
       only_selected="false"
       apply_with_weight="true"
       apply_no_weight="true"
       helper_size="0"
       steps="2"
       weight="33.333333"
       is_visible="true"
       id="path-effect849"
       effect="bspline" />
    <inkscape:path-effect
       only_selected="false"
       apply_with_weight="true"
       apply_no_weight="true"
       helper_size="0"
       steps="2"
       weight="33.333333"
       is_visible="true"
       id="path-effect845"
       effect="bspline" />
    <inkscape:path-effect
       effect="bspline"
       id="path-effect841"
       is_visible="true"
       weight="33.333333"
       steps="2"
       helper_size="0"
       apply_no_weight="true"
       apply_with_weight="true"
       only_selected="false" />
    <inkscape:path-effect
       effect="spiro"
       id="path-effect837"
       is_visible="true" />
  </defs>
  <sodipodi:namedview
     id="base"
     pagecolor="#ffffff"
     bordercolor="#666666"
     borderopacity="1.0"
     inkscape:pageopacity="0.0"
     inkscape:pageshadow="2"
     inkscape:zoom="0.7"
     inkscape:cx="241.98256"
     inkscape:cy="931.2976"
     inkscape:document-units="mm"
     inkscape:current-layer="g884"
     showgrid="false"
     inkscape:snap-global="false"
     inkscape:window-width="1853"
     inkscape:window-height="1145"
     inkscape:window-x="67"
     inkscape:window-y="27"
     inkscape:window-maximized="1" />
  <metadata
     id="metadata5">
    <rdf:RDF>
      <cc:Work
         rdf:about="">
        <dc:format>image/svg+xml</dc:format>
        <dc:type
           rdf:resource="http://purl.org/dc/dcmitype/StillImage" />
        <dc:title></dc:title>
      </cc:Work>
    </rdf:RDF>
  </metadata>
  <g
     inkscape:label="Layer 1"
     inkscape:groupmode="layer"
     id="layer1">
    <g
       id="g872"
       transform="translate(-28.047184,-15.501633)">
      <path
         inkscape:original-d="m 49.51558,26.382495 c 0.378232,3.345287 0.756198,6.690837 1.133901,10.036657 0.630251,-4.166717 1.260149,-8.332586 1.88983,-12.498478 0.756142,3.029451 1.512128,6.0596 2.267798,9.089802 1.197229,-3.598535 2.394049,-7.196359 3.590677,-10.79414 0.75613,2.776927 1.512129,5.554613 2.267797,8.332316 1.701222,-2.84101 3.401959,-5.681389 5.102541,-8.521687 0.693128,3.471153 1.386145,6.817086 2.078815,10.226026 0.693244,-3.282887 1.38614,-6.565122 2.078816,-9.847284 1.637961,3.660563 3.27597,7.322073 4.913557,10.983509 1.260193,-4.040315 2.520039,-8.080088 3.779661,-12.119734 0.315212,4.48116 0.630207,8.963288 0.944918,13.445332 1.071226,-7.386134 2.14207,-14.771193 3.212709,-22.156393 0.88215,8.016113 1.764106,16.033135 2.645765,24.050098 1.260188,-7.449067 2.520038,-14.897437 3.779661,-22.345758 0.189242,7.637381 0.37823,15.27565 0.566949,22.913872 2.016152,-7.890983 4.031902,-15.781169 6.047458,-23.671356 -1.448547,9.720387 -2.897475,19.441807 -4.346609,29.163111 3.717043,-4.73468 7.559588,-9.468807 11.338986,-14.202812 -3.08627,5.112433 -6.173184,10.225758 -9.260173,15.339037 5.292112,0.252243 10.583323,0.504722 15.874573,0.757482 -6.23588,0.567822 -12.598603,1.135961 -18.898302,1.704341 4.725054,1.893525 9.449428,3.78715 14.173742,5.681124 -7.873816,0.883437 -15.748337,1.767193 -23.622896,2.651192 12.221617,2.335396 24.442076,4.67088 36.662716,7.00672 -12.85036,0.189103 -25.701435,0.378477 -38.552547,0.568112 12.03244,1.640983 24.064107,3.282164 36.095777,4.923642 -10.14167,0.125984 -20.283931,0.25223 -30.426286,0.378743 11.213557,2.019742 22.426256,4.039644 33.638986,6.059867 -11.08654,2.082773 -22.173748,4.165891 -33.26102,6.24924 14.489369,1.009742 28.97766,2.019687 43.46609,3.029931 -12.22042,1.388433 -24.44154,2.777174 -36.662699,4.166156 9.764629,1.009739 19.528519,2.019693 29.292369,3.029937 -12.40933,0.946566 -24.819505,1.893443 -37.22966,2.84056 16.25318,4.355366 32.37937,8.71079 48.56866,13.0666 -17.07102,1.45155 -34.142687,2.90342 -51.214421,4.35551 11.213447,0.94661 22.426251,1.89347 33.638991,2.84058 -10.51956,-0.18962 -21.039855,-0.37901 -31.560176,-0.5681 -0.314718,-3.91404 -0.62968,-7.82759 -0.944915,-11.74101 0.252226,5.42803 0.504217,10.85699 0.755932,16.2859 -2.708621,-5.30289 -5.417249,-10.60503 -8.126272,-15.90716 -1.511571,4.86016 -3.023466,9.72078 -4.535592,14.58155 -1.007711,-5.30299 -2.015557,-10.60502 -3.023729,-15.907153 -1.826503,4.418233 -3.653413,8.837053 -5.48051,13.255973 -0.06274,-4.48236 -0.125725,-8.96382 -0.188983,-13.445344 -0.944596,5.806784 -1.889568,11.614484 -2.834747,17.422134 -0.440718,-6.43922 -0.881658,-12.87749 -1.322882,-19.315836 -2.078471,5.680646 -4.157364,11.361986 -6.236442,17.043366 0.315254,-7.51238 0.630208,-15.149932 0.944917,-22.724492 -3.779259,0.630947 -7.559058,1.262206 -11.338984,1.893712 5.040213,-2.525414 10.079361,-5.050157 15.118645,-7.574835 -5.542889,-2.461931 -11.086742,-4.923909 -16.63051,-7.385466 6.74081,-1.95714 13.481057,-3.913928 20.221187,-5.870494 -8.377591,-3.282542 -16.756233,-6.565123 -25.134747,-9.847286 5.480864,-1.073386 10.961284,-2.146467 16.441527,-3.219305 -6.235831,-3.219389 -12.47262,-6.438872 -18.709322,-9.657913 5.669848,-0.820887 11.339247,-1.64148 17.008473,-2.461818 -7.999601,-4.103085 -16.000301,-8.206337 -24.000848,-12.309106 13.166254,0.189106 26.331907,0.378476 39.497462,0.568112 -8.629793,-1.641449 -17.26019,-3.282695 -25.89068,-4.923643 3.465036,-1.641518 6.929643,-3.282692 10.394066,-4.923641 z"
         inkscape:path-effect="#path-effect841"
         inkscape:connector-curvature="0"
         id="path839"
         d="m 47.972366,28.875686 c 1.921155,0.852129 2.299121,4.197679 2.803135,3.787197 0.504013,-0.410481 1.133912,-4.57635 1.826777,-5.144515 0.692864,-0.568166 1.448851,2.461983 2.425377,2.177752 0.976526,-0.284231 2.173345,-3.882056 3.149646,-4.292414 0.976301,-0.410358 1.732301,2.367328 2.960863,2.335609 1.228562,-0.03172 2.929299,-2.872099 4.132201,-2.557869 1.202902,0.31423 1.883595,3.662668 2.576607,3.725642 0.693011,0.06297 1.385909,-3.219261 2.551168,-3.029969 1.165259,0.189293 2.803265,3.850804 4.252233,3.661268 1.448968,-0.189537 2.708812,-4.229311 3.496171,-4.008518 0.78736,0.220793 1.102357,4.702921 1.795354,3.25085 0.692998,-1.452071 1.763842,-8.83713 2.740202,-8.521642 0.976361,0.315489 1.858318,8.332511 2.929279,8.616425 1.07096,0.283914 2.330811,-7.164456 3.055213,-7.069905 0.724403,0.09455 0.913394,7.732821 2.015872,7.606413 1.102478,-0.126407 3.118229,-8.016593 3.401715,-7.101486 0.283486,0.915107 -1.165441,10.636527 -0.01216,13.145201 1.153286,2.508674 4.957356,-2.256169 5.303898,-2.066966 0.346541,0.189204 -2.740372,5.302529 -1.637779,7.985452 1.102593,2.682923 6.393807,2.935402 5.921257,3.342856 -0.47256,0.407454 -6.834771,0.981229 -7.622169,2.212222 -0.787398,1.230993 3.936976,3.124618 2.362303,4.513281 -1.574673,1.388664 -9.449194,2.272419 -7.275708,3.88215 2.173487,1.60973 14.393944,3.945218 14.079114,5.207667 -0.31483,1.262448 -13.165901,1.451822 -13.575259,2.367149 -0.409358,0.915327 11.622309,2.556505 12.567329,3.440219 0.94502,0.883713 -9.197238,1.009963 -8.661666,2.083112 0.535572,1.073149 11.748276,3.093051 11.811416,5.144503 0.0631,2.051451 -11.024068,4.134569 -9.323049,5.681149 1.701018,1.54658 16.189309,2.556528 17.323339,3.755839 1.13403,1.19931 -11.08709,2.588054 -12.31539,3.787444 -1.22829,1.199389 8.5356,2.209344 7.21288,3.187726 -1.32271,0.978381 -13.732887,1.925257 -11.813551,4.584437 1.919331,2.659179 18.049771,6.998805 17.608961,9.902455 -0.44081,2.90364 -17.512477,4.35549 -20.441643,5.55487 -2.929165,1.19938 8.283643,2.14622 8.630243,2.52496 0.3466,0.37874 -10.1737,0.18937 -15.591358,-1.86232 -5.417658,-2.0517 -5.73262,-5.96525 -5.764121,-5.20795 -0.0315,0.7573 0.22049,6.18626 -1.007981,6.24935 -1.228472,0.0631 -3.937103,-5.23906 -6.047325,-5.46015 -2.110223,-0.22109 -3.622119,4.63953 -4.882105,4.41847 -1.259987,-0.22105 -2.267829,-5.52308 -3.685085,-5.96509 -1.417255,-0.44201 -3.24416,3.97682 -4.189145,3.94513 -0.944984,-0.0317 -1.007974,-4.51316 -1.511876,-3.85055 -0.503902,0.66261 -1.44887,6.47032 -2.141854,6.15456 -0.692983,-0.31576 -1.13392,-6.75403 -2.393702,-7.13292 -1.259782,-0.37888 -3.338676,5.30246 -4.22195,4.38692 -0.883273,-0.91553 -0.565698,-8.552972 -2.297829,-12.024665 -1.732131,-3.471693 -5.51193,-2.840433 -4.881777,-3.787441 0.630152,-0.947009 5.6693,-3.471753 5.4174,-5.964952 -0.251901,-2.493199 -5.795754,-4.955176 -5.197137,-7.164598 0.598617,-2.209421 7.338864,-4.166209 6.520046,-6.785689 -0.818819,-2.61948 -9.19746,-5.902063 -10.646202,-8.079894 -1.448742,-2.177831 4.031677,-3.250915 3.653782,-5.396973 -0.377896,-2.146058 -6.614684,-5.365542 -6.898014,-7.38555 -0.283329,-2.020009 5.38607,-2.840602 4.220785,-5.302268 -1.165285,-2.461666 -9.165986,-6.564916 -6.583053,-8.521771 2.582933,-1.956855 15.748586,-1.767487 18.01644,-2.493375 2.267854,-0.725888 -6.362543,-2.367135 -8.945214,-4.008463 -2.582671,-1.641329 0.881936,-3.282504 2.803091,-2.430375 z"
         style="fill:none;stroke:#a03fb6;stroke-width:2.1452651;stroke-linecap:butt;stroke-linejoin:miter;stroke-miterlimit:4;stroke-dasharray:none;stroke-opacity:1" />
      <path
         style="fill:none;stroke:#f9ca35;stroke-width:1.27312875;stroke-linecap:butt;stroke-linejoin:miter;stroke-miterlimit:4;stroke-dasharray:none;stroke-opacity:1"
         d="m 49.407579,30.323091 c 1.822837,0.830102 2.181461,4.08918 2.65968,3.68931 0.478219,-0.399871 1.075882,-4.458062 1.733288,-5.011545 0.657406,-0.553483 1.374704,2.398346 2.301256,2.121464 0.926551,-0.276882 2.062123,-3.781711 2.988461,-4.181466 0.926338,-0.399754 1.643648,2.306135 2.809337,2.275238 1.165689,-0.0309 2.77939,-2.79786 3.920743,-2.491694 1.141354,0.306166 1.787187,3.567934 2.444733,3.629283 0.657546,0.06135 1.314983,-3.136047 2.420607,-2.951651 1.105624,0.184396 2.659804,3.751266 4.03462,3.566635 1.374817,-0.184632 2.570189,-4.119993 3.317254,-3.904908 0.747065,0.215084 1.045941,4.58136 1.703473,3.166822 0.657533,-1.414538 1.673576,-8.60871 2.59997,-8.301377 0.926395,0.307332 1.763216,8.117133 2.779369,8.39371 1.016153,0.276577 2.211528,-6.979268 2.898859,-6.887162 0.687331,0.09211 0.866651,7.532943 1.912708,7.409804 1.046058,-0.123139 2.958651,-7.809382 3.227629,-6.917928 0.268978,0.891453 -1.105799,10.3616 -0.01116,12.804951 1.094637,2.443351 4.703287,-2.197375 5.032095,-2.013063 0.328808,0.184312 -2.600133,5.165475 -1.553966,7.779049 1.046167,2.613574 6.066586,2.859526 5.618206,3.256451 -0.44838,0.396925 -6.484969,0.955867 -7.232074,2.155042 -0.747105,1.199174 3.735489,3.043854 2.241407,4.396623 -1.494083,1.35277 -8.965614,2.213682 -6.903359,3.781805 2.062254,1.568123 13.657306,3.843243 13.358586,5.073062 -0.29872,1.229819 -12.492108,1.414298 -12.880518,2.305967 -0.388411,0.891668 11.027518,2.490426 11.924188,3.351297 0.89666,0.860871 -8.726564,0.983857 -8.218402,2.029267 0.508161,1.04541 11.147052,3.013104 11.206962,5.01153 0.0599,1.998427 -10.459907,4.027701 -8.845943,5.534305 1.613963,1.506603 15.360803,2.490449 16.436803,3.65876 1.076,1.168312 -10.51969,2.52116 -11.68513,3.689548 -1.16544,1.168389 8.09877,2.152239 6.84376,3.105331 -1.25501,0.953093 -13.030102,1.875496 -11.209095,4.465916 1.821008,2.590419 17.126145,6.817933 16.707905,9.646523 -0.41825,2.8286 -16.616253,4.24293 -19.395519,5.41131 -2.779266,1.16838 7.859719,2.09074 8.188569,2.45968 0.32885,0.36895 -9.65304,0.18446 -14.793443,-1.8142 -5.140403,-1.99867 -5.439245,-5.81105 -5.469135,-5.07332 -0.02989,0.73773 0.209206,6.02637 -0.956398,6.08782 -1.165604,0.0614 -3.735616,-5.10365 -5.737847,-5.31902 -2.002232,-0.21537 -3.436754,4.51961 -4.632258,4.30427 -1.195504,-0.21534 -2.151771,-5.38034 -3.496496,-5.81091 -1.344724,-0.43058 -3.078133,3.87402 -3.974758,3.84315 -0.896625,-0.0309 -0.956392,-4.39652 -1.434506,-3.75102 -0.478113,0.64549 -1.374721,6.30307 -2.03224,5.99548 -0.657518,-0.30758 -1.075891,-6.57944 -2.271203,-6.94854 -1.195312,-0.36909 -3.16781,5.16539 -4.005883,4.27352 -0.838073,-0.89186 -0.536751,-8.33189 -2.180238,-11.713853 -1.643487,-3.381963 -5.229849,-2.76702 -4.631945,-3.689552 0.597903,-0.922531 5.379166,-3.382017 5.140154,-5.810774 -0.239013,-2.428757 -5.499153,-4.827097 -4.931166,-6.97941 0.567987,-2.152312 6.963294,-4.058522 6.186374,-6.610296 -0.776919,-2.551774 -8.726773,-5.749508 -10.101369,-7.871047 -1.374597,-2.121539 3.825352,-3.166886 3.466793,-5.257474 -0.358559,-2.090589 -6.276171,-5.226856 -6.544999,-7.194652 -0.268828,-1.967797 5.110434,-2.76718 4.004782,-5.16522 -1.105652,-2.398039 -8.696909,-6.39523 -6.246158,-8.301504 2.45075,-1.906274 14.942634,-1.721801 17.094428,-2.428927 2.151795,-0.707126 -6.036932,-2.305949 -8.487429,-3.904854 -2.450498,-1.598904 0.836802,-3.197658 2.659639,-2.367556 z"
         id="path847"
         inkscape:connector-curvature="0"
         inkscape:path-effect="#path-effect849"
         inkscape:original-d="m 50.871818,27.894344 c 0.358874,3.258819 0.717497,6.517897 1.07587,9.777233 0.597997,-4.059016 1.195662,-8.117207 1.793116,-12.175421 0.717447,2.951145 1.434744,5.902974 2.151739,8.854853 1.135963,-3.505522 2.271532,-7.010352 3.406924,-10.515138 0.717432,2.70515 1.434741,5.411039 2.151738,8.116945 1.614159,-2.767578 3.227861,-5.53454 4.841414,-8.301422 0.657656,3.381432 1.315204,6.64088 1.972428,9.961708 0.657768,-3.198033 1.315204,-6.395429 1.972427,-9.592755 1.55414,3.565946 3.108322,7.132815 4.662103,10.699614 1.195703,-3.93588 2.391073,-7.871241 3.586233,-11.806471 0.299081,4.365333 0.597957,8.731609 0.896558,13.097803 1.016407,-7.195222 2.032452,-14.389394 3.048298,-21.583703 0.837004,7.808915 1.673825,15.618716 2.510363,23.428461 1.195697,-7.256528 2.391072,-14.512374 3.586232,-21.768176 0.179559,7.439975 0.358877,14.880812 0.537937,22.321605 1.912973,-7.687021 3.825565,-15.373264 5.737972,-23.059509 -1.374418,9.469138 -2.749194,18.939285 -4.124168,28.409316 3.526822,-4.6123 7.172719,-9.224062 10.758708,-13.835707 -2.928324,4.980292 -5.857271,9.961452 -8.786279,14.942563 5.021283,0.245726 10.041699,0.491679 15.062189,0.737903 -5.91677,0.553145 -11.953871,1.106601 -17.931176,1.66029 4.483244,1.844585 8.96584,3.68926 13.448376,5.534282 -7.470856,0.860601 -14.942387,1.721515 -22.413959,2.582662 11.596165,2.275031 23.191219,4.55015 34.786459,6.825615 -12.19274,0.184216 -24.386132,0.368695 -36.579574,0.55343 11.416666,1.598565 22.832594,3.197327 34.248514,4.796377 -9.62263,0.122723 -19.245857,0.24571 -28.869165,0.368952 10.639689,1.967537 21.278575,3.935231 31.917485,5.903236 -10.51918,2.028938 -21.038996,4.058213 -31.558862,6.087709 13.747852,0.983643 27.494692,1.967486 41.241662,2.951618 -11.59502,1.352543 -23.19071,2.705391 -34.786444,4.058471 9.264914,0.983641 18.529124,1.967488 27.793304,2.95162 -11.77425,0.9221 -23.549341,1.844502 -35.324394,2.767141 15.421409,4.24279 30.722314,8.485631 46.083094,12.728861 -16.19738,1.41402 -32.395385,2.82836 -48.593456,4.24295 10.639586,0.92213 21.278566,1.8445 31.917466,2.76714 -9.98121,-0.18475 -19.963105,-0.36923 -29.945036,-0.55344 -0.298609,-3.81287 -0.597456,-7.62525 -0.896559,-11.43753 0.239318,5.28775 0.478415,10.57639 0.717246,15.86496 -2.570002,-5.16582 -5.140015,-10.33091 -7.710399,-15.496 -1.434214,4.73455 -2.868736,9.46953 -4.303481,14.20466 -0.956137,-5.16591 -1.912407,-10.33091 -2.868985,-15.495989 -1.733029,4.304029 -3.466444,8.608629 -5.200038,12.913339 -0.05953,-4.36651 -0.119289,-8.73215 -0.179312,-13.097815 -0.896254,5.656685 -1.792866,11.314265 -2.689674,16.971805 -0.418165,-6.27276 -0.836538,-12.54462 -1.255183,-18.816563 -1.972102,5.533823 -3.944604,11.068303 -5.917283,16.602853 0.299122,-7.31822 0.597956,-14.75835 0.896558,-22.137135 -3.585852,0.614638 -7.172214,1.22958 -10.758698,1.844762 C 47.76438,91.29217 52.545643,88.832685 57.327038,86.373262 52.067812,83.974966 46.807672,81.576625 41.547612,79.178694 47.943455,77.272141 54.338762,75.365931 60.733958,73.459937 52.785097,70.262242 44.835244,67.064507 36.885509,63.86718 42.085886,62.82154 47.285835,61.776193 52.485624,60.731086 46.56892,57.594908 40.651306,54.458643 34.73377,51.322807 40.113457,50.523139 45.492719,49.723754 50.871818,48.924617 43.281608,44.927588 35.69035,40.930398 28.09924,36.933673 c 12.492455,0.18422 24.984339,0.368692 37.476134,0.553425 -8.188153,-1.599016 -16.376879,-3.197842 -24.565696,-4.796376 3.28771,-1.59909 6.575011,-3.197843 9.86214,-4.796378 z" />
      <g
         transform="matrix(0.47409392,0,0,0.54633098,28.149272,18.44508)"
         id="g865">
        <path
           inkscape:original-d="m 60.70648,44.251114 c 0.181751,1.653877 0.363375,3.307884 0.544872,4.962025 0.302854,-2.059984 0.605538,-4.119549 0.908118,-6.179126 0.363348,1.497731 0.726622,2.995807 1.089743,4.49391 0.575303,-1.779081 1.15041,-3.55781 1.725424,-5.336518 0.363343,1.372886 0.726622,2.746147 1.089742,4.119416 0.817487,-1.404568 1.63474,-2.808823 2.451919,-4.213039 0.333068,1.716104 0.666083,3.370301 0.998931,5.055647 0.333124,-1.623027 0.66608,-3.245732 0.998931,-4.8684 0.787088,1.809746 1.574199,3.619961 2.361107,5.430139 0.605559,-1.997492 1.210952,-3.994716 1.816236,-5.991878 0.151469,2.215442 0.302833,4.431362 0.454061,6.647241 0.514755,-3.651633 1.029327,-7.302734 1.5438,-10.953904 0.423898,3.963088 0.847704,7.926625 1.271366,11.890133 0.605557,-3.682746 1.210952,-7.365147 1.816237,-11.047524 0.09094,3.775846 0.18175,7.552132 0.272435,11.328394 0.96882,-3.901225 1.937446,-7.802056 2.905979,-11.702887 -0.696069,4.805664 -1.39232,9.611839 -2.088671,14.417957 1.786147,-2.34078 3.632601,-4.681286 5.448711,-7.021731 -1.483042,2.527536 -2.966394,5.055514 -4.449781,7.583469 2.543013,0.124707 5.085593,0.24953 7.628192,0.374492 -2.996521,0.280726 -6.053994,0.561608 -9.081182,0.84261 2.270525,0.93614 4.540724,1.87233 6.810894,2.808692 -3.783597,0.436762 -7.567532,0.873683 -11.351486,1.310723 5.872841,1.154597 11.745126,2.309238 17.617497,3.464054 -6.17497,0.09349 -12.350284,0.187115 -18.525616,0.280869 5.781936,0.811286 11.563501,1.62267 17.345067,2.4342 -4.873366,0.06229 -9.747017,0.1247 -14.620712,0.187247 5.388439,0.998541 10.776466,1.997161 16.164507,2.995939 -5.327403,1.029703 -10.655128,2.059576 -15.982883,3.089563 6.962561,0.499207 13.924605,0.998514 20.886715,1.497969 -5.872266,0.686427 -11.744868,1.373007 -17.617489,2.059706 4.692187,0.499205 9.384019,0.998517 14.075832,1.497972 -5.963042,0.467973 -11.926491,0.936099 -17.88993,1.404345 7.810124,2.15325 15.559225,4.306529 23.338644,6.459999 -8.203116,0.717632 -16.406546,1.435422 -24.610009,2.153321 5.388386,0.467995 10.776463,0.936113 16.16451,1.404355 -5.054954,-0.09375 -10.11026,-0.187378 -15.165579,-0.280863 -0.151231,-1.935063 -0.30258,-3.869884 -0.454059,-5.80464 0.121202,2.683565 0.242291,5.367589 0.363247,8.051589 -1.301571,-2.621696 -2.603145,-5.243023 -3.904909,-7.864344 -0.726354,2.402816 -1.452863,4.805859 -2.179483,7.208976 -0.484235,-2.621747 -0.968534,-5.243018 -1.45299,-7.864341 -0.877687,2.184331 -1.755571,4.368953 -2.633544,6.553623 -0.03015,-2.216035 -0.06041,-4.431625 -0.09081,-6.647246 -0.453905,2.870817 -0.907992,5.742087 -1.362178,8.613332 -0.211777,-3.183487 -0.423662,-6.366505 -0.635683,-9.54956 -0.998765,2.808456 -1.997734,5.617255 -2.996791,8.426074 0.151489,-3.714048 0.302833,-7.489979 0.45406,-11.234767 -1.816043,0.311934 -3.632346,0.624022 -5.44871,0.936233 2.421968,-1.24854 4.843425,-2.496749 7.264947,-3.744925 -2.663519,-1.217154 -5.327501,-2.434332 -7.991442,-3.651302 3.239154,-0.967591 6.478038,-1.935008 9.716866,-2.902315 -4.025675,-1.622856 -8.051855,-3.245732 -12.077974,-4.868401 2.633714,-0.530672 5.267215,-1.061193 7.90063,-1.591593 -2.996497,-1.591635 -5.993455,-3.183316 -8.990371,-4.774778 2.724526,-0.405839 5.448836,-0.811532 8.173064,-1.217099 -3.84404,-2.028525 -7.688608,-4.057133 -11.533103,-6.085501 6.326767,0.09349 12.653244,0.187114 18.979675,0.280869 -4.146866,-0.811517 -8.294022,-1.622933 -12.441222,-2.434201 1.66505,-0.811551 3.329894,-1.622931 4.99465,-2.4342 z"
           inkscape:path-effect="#path-effect857"
           inkscape:connector-curvature="0"
           id="path855"
           d="m 60.797286,45.07806 c 0.09081,0.826946 0.272429,2.480953 0.514622,2.278016 0.242193,-0.202936 0.544878,-2.262501 0.877819,-2.543399 0.332942,-0.280897 0.696215,1.217179 1.165464,1.07666 0.469249,-0.140519 1.044355,-1.919249 1.513496,-2.122127 0.469141,-0.202879 0.832421,1.170382 1.422781,1.154701 0.590359,-0.01568 1.407613,-1.419935 1.985648,-1.264552 0.578036,0.155384 0.905116,1.810753 1.238128,1.841888 0.333013,0.03114 0.66597,-1.591569 1.22591,-1.497987 0.55994,0.09358 1.347049,1.903798 2.043321,1.810095 0.696272,-0.0937 1.301663,-2.090928 1.680012,-1.981771 0.378349,0.109157 0.529715,2.325077 0.86272,1.607188 0.333006,-0.717889 0.847578,-4.36899 1.316747,-4.213016 0.469169,0.155974 0.892975,4.119511 1.407603,4.259876 0.514627,0.140365 1.120022,-3.542036 1.468118,-3.495291 0.348097,0.04674 0.438912,3.82303 0.968685,3.760536 0.529772,-0.06249 1.498399,-3.963325 1.634623,-3.510905 0.136223,0.45242 -0.560028,5.258595 -0.0056,6.498596 0.55439,1.240002 2.38195,-1.115166 2.548473,-1.021625 0.166523,0.09354 -1.316829,2.621519 -0.787001,3.947929 0.529828,1.32641 3.072408,1.451233 2.845327,1.652675 -0.227081,0.201442 -3.284296,0.48511 -3.662665,1.0937 -0.37837,0.60859 1.891829,1.54478 1.135155,2.231322 -0.756674,0.686542 -4.54061,1.123462 -3.496187,1.919297 1.044422,0.795835 6.916706,1.950478 6.765423,2.57462 -0.151284,0.624142 -6.326598,0.717767 -6.523307,1.170295 -0.196709,0.452529 5.584856,1.263911 6.038967,1.700811 0.454111,0.436899 -4.41954,0.499316 -4.162183,1.02987 0.257357,0.530554 5.645384,1.529174 5.675727,2.543392 0.03034,1.014217 -5.297382,2.04409 -4.479994,2.808704 0.817388,0.764614 7.779432,1.263923 8.324366,1.856851 0.544933,0.592927 -5.327669,1.279508 -5.9179,1.872475 -0.590231,0.592966 4.101601,1.092278 3.465999,1.575981 -0.635603,0.483702 -6.599052,0.951828 -5.676812,2.266485 0.922239,1.314657 8.673493,3.460158 8.461672,4.89569 -0.211821,1.435531 -8.415252,2.153313 -9.822802,2.746274 -1.407549,0.592961 3.980528,1.061071 4.147079,1.248317 0.166552,0.187246 -4.888755,0.09362 -7.492096,-0.920715 -2.603341,-1.014337 -2.75469,-2.949158 -2.769827,-2.574756 -0.01514,0.374402 0.105952,3.058426 -0.484365,3.089613 -0.590317,0.03119 -1.891893,-2.59014 -2.905915,-2.699443 -1.014023,-0.109302 -1.740533,2.293741 -2.345992,2.184451 -0.60546,-0.109289 -1.089758,-2.73056 -1.77079,-2.949083 -0.681033,-0.218523 -1.558914,1.966101 -2.013006,1.950432 -0.454092,-0.01567 -0.48436,-2.231259 -0.726499,-1.90367 -0.242139,0.327588 -0.696224,3.198859 -1.029222,3.04275 -0.332999,-0.156108 -0.544882,-3.339126 -1.150244,-3.526443 -0.605361,-0.187317 -1.60433,2.621482 -2.028769,2.168853 -0.424438,-0.45263 -0.271834,-4.22851 -1.104172,-5.944881 -0.832339,-1.716371 -2.648641,-1.404282 -2.345835,-1.872474 0.302806,-0.468192 2.724263,-1.716401 2.603216,-2.949015 -0.121048,-1.232613 -2.78503,-2.449791 -2.497375,-3.542107 0.287655,-1.092315 3.526539,-2.059732 3.133071,-3.354778 -0.393469,-1.295045 -4.419648,-2.917922 -5.115809,-3.99462 -0.69616,-1.076698 1.93734,-1.60722 1.755748,-2.668211 -0.181592,-1.06099 -3.17855,-2.652672 -3.314696,-3.651344 -0.136145,-0.998672 2.588165,-1.404365 2.02821,-2.621389 -0.559956,-1.217024 -4.404524,-3.245631 -3.163348,-4.21308 1.241176,-0.967449 7.567653,-0.873827 8.657422,-1.232699 1.089768,-0.358872 -3.057388,-1.170289 -4.298434,-1.981746 -1.241047,-0.811457 0.423797,-1.622837 1.256162,-2.0285 0.832364,-0.405662 0.832362,-0.405662 0.923168,0.421284 z"
           style="fill:none;stroke:#f9ca35;stroke-width:3.11927462;stroke-linecap:butt;stroke-linejoin:miter;stroke-miterlimit:4;stroke-dasharray:none;stroke-opacity:1" />
        <path
           style="fill:none;stroke:#a03fb6;stroke-width:1.55963743;stroke-linecap:butt;stroke-linejoin:miter;stroke-miterlimit:4;stroke-dasharray:none;stroke-opacity:1"
           d="m 61.44435,45.804128 c 0.08616,0.805571 0.258487,2.416828 0.488285,2.219137 0.229798,-0.197691 0.516993,-2.204021 0.832895,-2.477659 0.315903,-0.273638 0.660585,1.185717 1.10582,1.04883 0.445235,-0.136886 0.99091,-1.869639 1.436042,-2.067275 0.445132,-0.197637 0.78982,1.140128 1.349968,1.124854 0.560148,-0.01527 1.335577,-1.383233 1.884037,-1.231838 0.548459,0.151395 0.858789,1.76392 1.174759,1.794252 0.31597,0.03033 0.631887,-1.55043 1.163171,-1.459268 0.531284,0.09116 1.278113,1.854587 1.938752,1.763309 0.66064,-0.09128 1.235051,-2.036881 1.594038,-1.930547 0.358986,0.106335 0.502605,2.26498 0.818568,1.565646 0.315963,-0.699333 0.804201,-4.256061 1.249361,-4.10412 0.445159,0.151942 0.847275,4.013031 1.335566,4.149769 0.488291,0.136737 1.062704,-3.450482 1.392987,-3.404946 0.330282,0.04554 0.41645,3.724213 0.919111,3.663335 0.502661,-0.06088 1.421717,-3.860881 1.550969,-3.420156 0.129252,0.440726 -0.531368,5.122674 -0.0052,6.330391 0.526195,1.207717 2.259875,-1.086109 2.417876,-0.994987 0.158002,0.09112 -1.249439,2.553761 -0.746725,3.845885 0.502713,1.292125 2.915168,1.413721 2.699704,1.609958 -0.215464,0.196236 -3.116208,0.472571 -3.475216,1.065431 -0.359007,0.592859 1.79501,1.504851 1.077062,2.173647 -0.717948,0.668797 -4.308236,1.094423 -3.317264,1.869688 0.990972,0.775264 6.562731,1.900062 6.419189,2.508072 -0.143542,0.608011 -6.00282,0.699216 -6.189463,1.140048 -0.186644,0.440832 5.299042,1.231242 5.729916,1.656848 0.430875,0.425606 -4.193364,0.486409 -3.949179,1.00325 0.244185,0.51684 5.356478,1.489649 5.385269,2.477651 0.02879,0.988003 -5.026285,1.991256 -4.250729,2.736106 0.775555,0.744851 7.381309,1.231254 7.898358,1.808856 0.517049,0.577601 -5.055016,1.246436 -5.615043,1.824076 -0.560028,0.57764 3.891694,1.064046 3.288625,1.535246 -0.603069,0.4712 -6.261341,0.927227 -5.38635,2.207889 0.874991,1.280662 8.229663,3.370735 8.028686,4.769164 -0.200978,1.398428 -7.984589,2.097661 -9.320107,2.675295 -1.335519,0.577635 3.77682,1.033643 3.934845,1.216046 0.158024,0.182402 -4.638566,0.09119 -7.108678,-0.896926 -2.470112,-0.988122 -2.613715,-2.872925 -2.628078,-2.508198 -0.01436,0.364726 0.10053,2.979379 -0.459578,3.009754 -0.560107,0.03038 -1.795072,-2.523195 -2.757202,-2.629669 -0.962129,-0.106474 -1.651459,2.234454 -2.225933,2.127991 -0.574474,-0.106462 -1.033989,-2.659988 -1.680168,-2.87286 -0.646179,-0.212871 -1.479132,1.915282 -1.909987,1.900017 -0.430855,-0.01526 -0.459576,-2.173593 -0.689325,-1.854468 -0.229748,0.319125 -0.660594,3.116178 -0.976551,2.96411 -0.315956,-0.152068 -0.516997,-3.252814 -1.091379,-3.43529 -0.574382,-0.182476 -1.522225,2.553718 -1.924943,2.112789 -0.402718,-0.440929 -0.257924,-4.119209 -1.047666,-5.791219 -0.789743,-1.67201 -2.513094,-1.367988 -2.225783,-1.824079 0.28731,-0.45609 2.584845,-1.672036 2.46999,-2.87279 -0.114855,-1.200754 -2.642504,-2.38647 -2.369568,-3.450552 0.272936,-1.064081 3.346068,-2.006493 2.972732,-3.268065 -0.373335,-1.261573 -4.193469,-2.842502 -4.854,-3.891369 -0.660532,-1.048868 1.838194,-1.565677 1.665894,-2.599245 -0.172301,-1.033567 -3.015885,-2.584107 -3.145062,-3.556965 -0.129178,-0.972858 2.455714,-1.368066 1.924414,-2.553634 -0.5313,-1.185568 -4.179119,-3.16174 -3.001461,-4.104182 1.177659,-0.942442 7.180371,-0.851241 8.214369,-1.200837 1.033999,-0.349596 -2.900921,-1.140039 -4.078455,-1.930522 -1.177534,-0.790483 0.40211,-1.580891 1.191877,-1.976068 0.789767,-0.395177 0.789772,-0.395177 0.87593,0.410394 z"
           id="path859"
           inkscape:connector-curvature="0"
           inkscape:path-effect="#path-effect861"
           inkscape:original-d="m 61.358192,44.998557 c 0.172449,1.611128 0.344778,3.222385 0.516986,4.833768 0.287355,-2.006737 0.57455,-4.013067 0.861644,-6.019409 0.344754,1.459018 0.689436,2.918373 1.033973,4.377753 0.545863,-1.733096 1.091537,-3.465849 1.637126,-5.198581 0.344747,1.337399 0.689435,2.675164 1.033972,4.012938 0.775651,-1.368264 1.551081,-2.736223 2.32644,-4.104142 0.316023,1.671747 0.631994,3.283186 0.947809,4.924971 0.316077,-1.581076 0.631994,-3.161837 0.947808,-4.742564 0.74681,1.762969 1.493639,3.526394 2.240276,5.289784 0.57457,-1.94586 1.14898,-3.891464 1.723289,-5.837003 0.143717,2.158177 0.287335,4.316822 0.430822,6.475425 0.488413,-3.557247 0.976652,-7.113975 1.464795,-10.670771 0.402205,3.860651 0.804322,7.72174 1.206302,11.582802 0.574568,-3.587557 1.14898,-7.174776 1.723289,-10.761974 0.08628,3.678251 0.172451,7.356928 0.258494,11.035583 0.919239,-3.800388 1.838295,-7.600391 2.757262,-11.400395 -0.660448,4.681449 -1.321067,9.363397 -1.981782,14.045288 1.69474,-2.280276 3.446699,-4.560286 5.169871,-6.840239 -1.407145,2.462208 -2.814589,4.924845 -4.222062,7.387457 2.412872,0.121485 4.825327,0.243082 7.237818,0.364812 -2.843179,0.27347 -5.744181,0.547093 -8.616449,0.820832 2.154328,0.911944 4.308346,1.823934 6.462334,2.736095 -3.589963,0.425472 -7.18025,0.8511 -10.770557,1.276842 5.572294,1.124753 11.144053,2.24955 16.715902,3.374518 -5.858965,0.09107 -11.718243,0.182279 -17.577545,0.27361 5.486038,0.790315 10.971723,1.580727 16.457403,2.371282 -4.623953,0.06067 -9.248192,0.121476 -13.87247,0.182406 5.112678,0.972731 10.224971,1.94554 15.337276,2.918502 -5.054771,1.003087 -10.109847,2.006341 -15.164948,3.009704 6.606242,0.486304 13.211996,0.972706 19.817814,1.459251 -5.571743,0.668684 -11.143808,1.337519 -16.715894,2.006468 4.452059,0.486303 8.903781,0.972707 13.355487,1.459253 -5.657868,0.455877 -11.31614,0.911903 -16.974394,1.368047 7.410434,2.097594 14.762962,4.195213 22.144262,6.293024 -7.783311,0.699078 -15.566922,1.398314 -23.350564,2.097673 5.112629,0.455892 10.224967,0.911903 15.337267,1.368047 -4.79626,-0.09134 -9.59285,-0.182543 -14.389457,-0.273615 -0.14349,-1.885046 -0.287095,-3.769849 -0.430823,-5.654603 0.114999,2.614212 0.229892,5.228864 0.344658,7.843481 -1.234961,-2.553931 -2.469926,-5.107501 -3.70507,-7.661071 -0.689182,2.340715 -1.378511,4.681643 -2.067948,7.022645 -0.459451,-2.553975 -0.918967,-5.107501 -1.37863,-7.661065 -0.832771,2.12787 -1.665727,4.256022 -2.498769,6.384228 -0.02861,-2.15876 -0.05732,-4.317089 -0.08617,-6.475431 -0.430676,2.796609 -0.861524,5.593662 -1.292466,8.390694 -0.20094,-3.101191 -0.401981,-6.201937 -0.603152,-9.302725 -0.947652,2.735868 -1.895496,5.472061 -2.843426,8.208288 0.143737,-3.618056 0.287335,-7.296383 0.430822,-10.944383 -1.723105,0.303871 -3.446456,0.607893 -5.169866,0.912033 2.298022,-1.216268 4.595557,-2.432213 6.893156,-3.648128 -2.527211,-1.185694 -5.05486,-2.37141 -7.582472,-3.556924 3.073388,-0.942581 6.146519,-1.884993 9.219596,-2.827297 -3.819659,-1.58091 -7.639793,-3.161839 -11.459871,-4.742566 2.498932,-0.516954 4.997658,-1.033763 7.496307,-1.550454 -2.843148,-1.550496 -5.686733,-3.101034 -8.53028,-4.651361 2.585095,-0.395348 5.169987,-0.790556 7.7548,-1.185642 -3.647316,-1.976092 -7.295136,-3.952263 -10.942884,-5.928205 6.002987,0.09108 12.005699,0.182278 18.008368,0.273608 -3.934645,-0.790538 -7.869565,-1.580982 -11.804529,-2.371282 1.57984,-0.790574 3.159484,-1.580982 4.739045,-2.371282 z" />
      </g>
    </g>
    <g
       transform="translate(87.397136,71.895503)"
       id="g884">
      <g
         id="g895"
         transform="translate(-16.303441,-84.99171)">
        <path
           inkscape:original-d="m 49.51558,26.382495 c 0.378232,3.345287 0.756198,6.690837 1.133901,10.036657 0.630251,-4.166717 1.260149,-8.332586 1.88983,-12.498478 0.756142,3.029451 1.512128,6.0596 2.267798,9.089802 1.197229,-3.598535 2.394049,-7.196359 3.590677,-10.79414 0.75613,2.776927 1.512129,5.554613 2.267797,8.332316 1.701222,-2.84101 3.401959,-5.681389 5.102541,-8.521687 0.693128,3.471153 1.386145,6.817086 2.078815,10.226026 0.693244,-3.282887 1.38614,-6.565122 2.078816,-9.847284 1.637961,3.660563 3.27597,7.322073 4.913557,10.983509 1.260193,-4.040315 2.520039,-8.080088 3.779661,-12.119734 0.315212,4.48116 0.630207,8.963288 0.944918,13.445332 1.071226,-7.386134 2.14207,-14.771193 3.212709,-22.156393 0.88215,8.016113 1.764106,16.033135 2.645765,24.050098 1.260188,-7.449067 2.520038,-14.897437 3.779661,-22.345758 0.189242,7.637381 0.37823,15.27565 0.566949,22.913872 2.016152,-7.890983 4.031902,-15.781169 6.047458,-23.671356 -1.448547,9.720387 -2.897475,19.441807 -4.346609,29.163111 3.717043,-4.73468 7.559588,-9.468807 11.338986,-14.202812 -3.08627,5.112433 -6.173184,10.225758 -9.260173,15.339037 5.292112,0.252243 10.583323,0.504722 15.874573,0.757482 -6.23588,0.567822 -12.598603,1.135961 -18.898302,1.704341 4.725054,1.893525 9.449428,3.78715 14.173742,5.681124 -7.873816,0.883437 -15.748337,1.767193 -23.622896,2.651192 12.221617,2.335396 24.442076,4.67088 36.662716,7.00672 -12.85036,0.189103 -25.701435,0.378477 -38.552547,0.568112 12.03244,1.640983 24.064107,3.282164 36.095777,4.923642 -10.14167,0.125984 -20.283931,0.25223 -30.426286,0.378743 11.213557,2.019742 22.426256,4.039644 33.638986,6.059867 -11.08654,2.082773 -22.173748,4.165891 -33.26102,6.24924 14.489369,1.009742 28.97766,2.019687 43.46609,3.029931 -12.22042,1.388433 -24.44154,2.777174 -36.662699,4.166156 9.764629,1.009739 19.528519,2.019693 29.292369,3.029937 -12.40933,0.946566 -24.819505,1.893443 -37.22966,2.84056 16.25318,4.355366 32.37937,8.71079 48.56866,13.0666 -17.07102,1.45155 -34.142687,2.90342 -51.214421,4.35551 11.213447,0.94661 22.426251,1.89347 33.638991,2.84058 -10.51956,-0.18962 -21.039855,-0.37901 -31.560176,-0.5681 -0.314718,-3.91404 -0.62968,-7.82759 -0.944915,-11.74101 0.252226,5.42803 0.504217,10.85699 0.755932,16.2859 -2.708621,-5.30289 -5.417249,-10.60503 -8.126272,-15.90716 -1.511571,4.86016 -3.023466,9.72078 -4.535592,14.58155 -1.007711,-5.30299 -2.015557,-10.60502 -3.023729,-15.907153 -1.826503,4.418233 -3.653413,8.837053 -5.48051,13.255973 -0.06274,-4.48236 -0.125725,-8.96382 -0.188983,-13.445344 -0.944596,5.806784 -1.889568,11.614484 -2.834747,17.422134 -0.440718,-6.43922 -0.881658,-12.87749 -1.322882,-19.315836 -2.078471,5.680646 -4.157364,11.361986 -6.236442,17.043366 0.315254,-7.51238 0.630208,-15.149932 0.944917,-22.724492 -3.779259,0.630947 -7.559058,1.262206 -11.338984,1.893712 5.040213,-2.525414 10.079361,-5.050157 15.118645,-7.574835 -5.542889,-2.461931 -11.086742,-4.923909 -16.63051,-7.385466 6.74081,-1.95714 13.481057,-3.913928 20.221187,-5.870494 -8.377591,-3.282542 -16.756233,-6.565123 -25.134747,-9.847286 5.480864,-1.073386 10.961284,-2.146467 16.441527,-3.219305 -6.235831,-3.219389 -12.47262,-6.438872 -18.709322,-9.657913 5.669848,-0.820887 11.339247,-1.64148 17.008473,-2.461818 -7.999601,-4.103085 -16.000301,-8.206337 -24.000848,-12.309106 13.166254,0.189106 26.331907,0.378476 39.497462,0.568112 -8.629793,-1.641449 -17.26019,-3.282695 -25.89068,-4.923643 3.465036,-1.641518 6.929643,-3.282692 10.394066,-4.923641 z"
           inkscape:path-effect="#path-effect841"
           inkscape:connector-curvature="0"
           id="path874"
           d="m 47.972366,28.875686 c 1.921155,0.852129 2.299121,4.197679 2.803135,3.787197 0.504013,-0.410481 1.133912,-4.57635 1.826777,-5.144515 0.692864,-0.568166 1.448851,2.461983 2.425377,2.177752 0.976526,-0.284231 2.173345,-3.882056 3.149646,-4.292414 0.976301,-0.410358 1.732301,2.367328 2.960863,2.335609 1.228562,-0.03172 2.929299,-2.872099 4.132201,-2.557869 1.202902,0.31423 1.883595,3.662668 2.576607,3.725642 0.693011,0.06297 1.385909,-3.219261 2.551168,-3.029969 1.165259,0.189293 2.803265,3.850804 4.252233,3.661268 1.448968,-0.189537 2.708812,-4.229311 3.496171,-4.008518 0.78736,0.220793 1.102357,4.702921 1.795354,3.25085 0.692998,-1.452071 1.763842,-8.83713 2.740202,-8.521642 0.976361,0.315489 1.858318,8.332511 2.929279,8.616425 1.07096,0.283914 2.330811,-7.164456 3.055213,-7.069905 0.724403,0.09455 0.913394,7.732821 2.015872,7.606413 1.102478,-0.126407 3.118229,-8.016593 3.401715,-7.101486 0.283486,0.915107 -1.165441,10.636527 -0.01216,13.145201 1.153286,2.508674 4.957356,-2.256169 5.303898,-2.066966 0.346541,0.189204 -2.740372,5.302529 -1.637779,7.985452 1.102593,2.682923 6.393807,2.935402 5.921257,3.342856 -0.47256,0.407454 -6.834771,0.981229 -7.622169,2.212222 -0.787398,1.230993 3.936976,3.124618 2.362303,4.513281 -1.574673,1.388664 -9.449194,2.272419 -7.275708,3.88215 2.173487,1.60973 14.393944,3.945218 14.079114,5.207667 -0.31483,1.262448 -13.165901,1.451822 -13.575259,2.367149 -0.409358,0.915327 11.622309,2.556505 12.567329,3.440219 0.94502,0.883713 -9.197238,1.009963 -8.661666,2.083112 0.535572,1.073149 11.748276,3.093051 11.811416,5.144503 0.0631,2.051451 -11.024068,4.134569 -9.323049,5.681149 1.701018,1.54658 16.189309,2.556528 17.323339,3.755839 1.13403,1.19931 -11.08709,2.588054 -12.31539,3.787444 -1.22829,1.199389 8.5356,2.209344 7.21288,3.187726 -1.32271,0.978381 -13.732887,1.925257 -11.813551,4.584437 1.919331,2.659179 18.049771,6.998805 17.608961,9.902455 -0.44081,2.90364 -17.512477,4.35549 -20.441643,5.55487 -2.929165,1.19938 8.283643,2.14622 8.630243,2.52496 0.3466,0.37874 -10.1737,0.18937 -15.591358,-1.86232 -5.417658,-2.0517 -5.73262,-5.96525 -5.764121,-5.20795 -0.0315,0.7573 0.22049,6.18626 -1.007981,6.24935 -1.228472,0.0631 -3.937103,-5.23906 -6.047325,-5.46015 -2.110223,-0.22109 -3.622119,4.63953 -4.882105,4.41847 -1.259987,-0.22105 -2.267829,-5.52308 -3.685085,-5.96509 -1.417255,-0.44201 -3.24416,3.97682 -4.189145,3.94513 -0.944984,-0.0317 -1.007974,-4.51316 -1.511876,-3.85055 -0.503902,0.66261 -1.44887,6.47032 -2.141854,6.15456 -0.692983,-0.31576 -1.13392,-6.75403 -2.393702,-7.13292 -1.259782,-0.37888 -3.338676,5.30246 -4.22195,4.38692 -0.883273,-0.91553 -0.565698,-8.552972 -2.297829,-12.024665 -1.732131,-3.471693 -5.51193,-2.840433 -4.881777,-3.787441 0.630152,-0.947009 5.6693,-3.471753 5.4174,-5.964952 -0.251901,-2.493199 -5.795754,-4.955176 -5.197137,-7.164598 0.598617,-2.209421 7.338864,-4.166209 6.520046,-6.785689 -0.818819,-2.61948 -9.19746,-5.902063 -10.646202,-8.079894 -1.448742,-2.177831 4.031677,-3.250915 3.653782,-5.396973 -0.377896,-2.146058 -6.614684,-5.365542 -6.898014,-7.38555 -0.283329,-2.020009 5.38607,-2.840602 4.220785,-5.302268 -1.165285,-2.461666 -9.165986,-6.564916 -6.583053,-8.521771 2.582933,-1.956855 15.748586,-1.767487 18.01644,-2.493375 2.267854,-0.725888 -6.362543,-2.367135 -8.945214,-4.008463 -2.582671,-1.641329 0.881936,-3.282504 2.803091,-2.430375 z"
           style="fill:none;stroke:#a03fb6;stroke-width:2.1452651;stroke-linecap:butt;stroke-linejoin:miter;stroke-miterlimit:4;stroke-dasharray:none;stroke-opacity:1" />
        <path
           style="fill:none;stroke:#f9ca35;stroke-width:1.27312875;stroke-linecap:butt;stroke-linejoin:miter;stroke-miterlimit:4;stroke-dasharray:none;stroke-opacity:1"
           d="m 48.878412,32.968926 c 1.822837,0.830102 2.181461,4.08918 2.65968,3.68931 0.478219,-0.399871 1.075882,-4.458062 1.733288,-5.011545 0.657406,-0.553483 1.374704,2.398346 2.301256,2.121464 0.926551,-0.276882 2.062123,-3.781711 2.988461,-4.181466 0.926338,-0.399754 1.643648,2.306135 2.809337,2.275238 1.165689,-0.0309 2.77939,-2.79786 3.920743,-2.491694 1.141354,0.306166 1.787187,3.567934 2.444733,3.629283 0.657546,0.06135 1.314983,-3.136047 2.420607,-2.951651 1.105624,0.184396 2.659804,3.751266 4.03462,3.566635 1.374817,-0.184632 2.570189,-4.119993 3.317254,-3.904908 0.747065,0.215084 1.045941,4.58136 1.703473,3.166822 0.657533,-1.414538 1.673576,-8.60871 2.59997,-8.301377 0.926395,0.307332 1.763216,8.117133 2.779369,8.39371 1.016153,0.276577 2.211528,-6.979268 2.898859,-6.887162 0.687331,0.09211 0.866651,7.532943 1.912708,7.409804 1.046058,-0.123139 2.958651,-7.809382 3.227629,-6.917928 0.268978,0.891453 -1.105799,10.3616 -0.01116,12.804951 1.094638,2.443351 4.703287,-2.197376 5.032095,-2.013064 0.328807,0.184312 -2.600133,5.165476 -1.553966,7.77905 1.046168,2.613574 6.066584,2.859526 5.618204,3.256451 -0.44838,0.396925 -6.484966,0.955867 -7.232071,2.155042 -0.747105,1.199175 3.735489,3.043854 2.241407,4.396623 -1.494083,1.35277 -8.965614,2.213681 -6.903359,3.781805 2.062254,1.568123 13.657303,3.843243 13.358583,5.073062 -0.29872,1.229819 -12.492105,1.414298 -12.880515,2.305967 -0.388411,0.891668 11.027515,2.490426 11.924185,3.351297 0.89666,0.860871 -8.726561,0.983857 -8.218399,2.029267 0.508161,1.04541 11.147049,3.013104 11.206959,5.01153 0.0599,1.998427 -10.459904,4.027701 -8.84594,5.534305 1.613963,1.506604 15.3608,2.490449 16.4368,3.65876 1.076,1.168312 -10.51969,2.52116 -11.68513,3.689549 -1.165437,1.168388 8.09877,2.152237 6.84376,3.10533 -1.25501,0.953093 -13.030099,1.875496 -11.209092,4.465918 1.821007,2.590422 17.126142,6.817946 16.707902,9.646536 -0.41825,2.8286 -16.61625,4.24293 -19.395516,5.41131 -2.779266,1.16838 7.859716,2.09074 8.188566,2.45968 0.32885,0.36895 -9.653037,0.18446 -14.79344,-1.8142 -5.140403,-1.99867 -5.439245,-5.81105 -5.469135,-5.07332 -0.02989,0.73773 0.209206,6.02637 -0.956398,6.08782 -1.165604,0.0614 -3.735616,-5.10365 -5.737847,-5.31902 -2.002232,-0.21537 -3.436754,4.51961 -4.632258,4.30427 -1.195504,-0.21534 -2.151771,-5.38034 -3.496496,-5.81091 -1.344724,-0.43058 -3.078133,3.87402 -3.974758,3.84315 -0.896625,-0.0309 -0.956392,-4.39652 -1.434506,-3.75102 -0.478114,0.64549 -1.374721,6.30307 -2.03224,5.99548 -0.657518,-0.30758 -1.07589,-6.57944 -2.271204,-6.94854 -1.195315,-0.36909 -3.167811,5.16539 -4.005883,4.27352 -0.838072,-0.89186 -0.53675,-8.3319 -2.180237,-11.713865 -1.643487,-3.381966 -5.229849,-2.767023 -4.631945,-3.689555 0.597903,-0.922531 5.379166,-3.382017 5.140154,-5.810774 -0.239013,-2.428757 -5.499153,-4.827097 -4.931166,-6.97941 0.567987,-2.152312 6.963294,-4.058522 6.186374,-6.610296 -0.776919,-2.551774 -8.726773,-5.749508 -10.101369,-7.871047 -1.374597,-2.121539 3.825352,-3.166886 3.466793,-5.257474 -0.358559,-2.090589 -6.276171,-5.226856 -6.544999,-7.194652 -0.268828,-1.967797 5.110434,-2.76718 4.004782,-5.16522 -1.105652,-2.398039 -8.696909,-6.39523 -6.246158,-8.301504 2.45075,-1.906274 14.942634,-1.721801 17.094428,-2.428927 2.151795,-0.707126 -6.036932,-2.305949 -8.487429,-3.904854 -2.450498,-1.598904 0.836802,-3.197658 2.659639,-2.367556 z"
           id="path876"
           inkscape:connector-curvature="0"
           inkscape:path-effect="#path-effect888"
           inkscape:original-d="m 50.342651,30.540179 c 0.358874,3.258819 0.717497,6.517897 1.07587,9.777233 0.597997,-4.059016 1.195662,-8.117207 1.793116,-12.175421 0.717447,2.951145 1.434744,5.902974 2.151739,8.854853 1.135963,-3.505522 2.271532,-7.010352 3.406924,-10.515138 0.717432,2.70515 1.434741,5.411039 2.151738,8.116945 1.614159,-2.767578 3.227861,-5.53454 4.841414,-8.301422 0.657656,3.381432 1.315204,6.64088 1.972428,9.961708 0.657768,-3.198033 1.315204,-6.395429 1.972427,-9.592755 1.55414,3.565946 3.108322,7.132815 4.662103,10.699614 1.195703,-3.93588 2.391073,-7.871241 3.586233,-11.806471 0.299081,4.365333 0.597957,8.731609 0.896558,13.097803 1.016407,-7.195222 2.032452,-14.389394 3.048298,-21.583703 0.837004,7.808915 1.673825,15.618716 2.510363,23.428461 1.195697,-7.256528 2.391072,-14.512374 3.586232,-21.768176 0.179559,7.439975 0.358877,14.880812 0.537937,22.321605 1.912973,-7.687021 3.825565,-15.373264 5.737972,-23.059509 -1.374418,9.469138 -2.749194,18.939285 -4.124168,28.409316 3.526822,-4.6123 7.172719,-9.224062 10.758705,-13.835707 -2.928321,4.980292 -5.857268,9.961452 -8.786276,14.942563 5.021283,0.245726 10.041696,0.491679 15.062186,0.737903 -5.91677,0.553145 -11.953868,1.106601 -17.931173,1.66029 4.483244,1.844585 8.96584,3.68926 13.448373,5.534282 -7.470853,0.860601 -14.942384,1.721515 -22.413956,2.582662 11.596165,2.275031 23.191216,4.55015 34.786456,6.825615 -12.19274,0.184216 -24.386129,0.368695 -36.579571,0.55343 11.416666,1.598565 22.832591,3.197327 34.248511,4.796377 -9.62263,0.122723 -19.245854,0.24571 -28.869162,0.368952 10.639689,1.967537 21.278572,3.935231 31.917482,5.903236 -10.51918,2.028938 -21.038993,4.058213 -31.558859,6.087709 13.747852,0.983643 27.494689,1.967486 41.241659,2.951618 -11.59502,1.352543 -23.19071,2.705391 -34.786441,4.058471 9.264914,0.983641 18.529121,1.967488 27.793301,2.95162 -11.77425,0.9221 -23.549338,1.844502 -35.324391,2.767141 15.421409,4.24279 30.722311,8.485646 46.083091,12.728876 -16.19738,1.41402 -32.395382,2.82836 -48.593453,4.24295 10.639586,0.92213 21.278563,1.8445 31.917463,2.76714 -9.98121,-0.18475 -19.963102,-0.36923 -29.945033,-0.55344 -0.298609,-3.81287 -0.597456,-7.62525 -0.896559,-11.43753 0.239318,5.28775 0.478415,10.57639 0.717246,15.86496 -2.570002,-5.16582 -5.140015,-10.33091 -7.710399,-15.496 -1.434214,4.73455 -2.868736,9.46953 -4.303481,14.20466 -0.956137,-5.16591 -1.912407,-10.33091 -2.868985,-15.49599 -1.733029,4.30403 -3.466444,8.60863 -5.200038,12.91334 -0.05953,-4.36651 -0.119289,-8.73215 -0.179312,-13.09782 -0.896254,5.65669 -1.792866,11.31427 -2.689674,16.97181 -0.418165,-6.27276 -0.836538,-12.54462 -1.255183,-18.81658 -1.972102,5.53384 -3.944604,11.06832 -5.917283,16.60287 0.299122,-7.31822 0.597956,-14.75836 0.896558,-22.13715 -3.585852,0.614638 -7.172214,1.22958 -10.758698,1.844762 4.782274,-2.460137 9.563537,-4.919622 14.344932,-7.379045 -5.259226,-2.398296 -10.519366,-4.796637 -15.779426,-7.194568 6.395843,-1.906553 12.79115,-3.812763 19.186346,-5.718757 -7.948861,-3.197695 -15.898714,-6.39543 -23.848449,-9.592757 5.200377,-1.04564 10.400326,-2.090987 15.600115,-3.136094 -5.916704,-3.136178 -11.834318,-6.272443 -17.751854,-9.408279 5.379687,-0.799668 10.758949,-1.599053 16.138048,-2.39819 -7.59021,-3.997029 -15.181468,-7.994219 -22.772578,-11.990944 12.492455,0.18422 24.984339,0.368692 37.476134,0.553425 -8.188153,-1.599016 -16.376879,-3.197842 -24.565696,-4.796376 3.28771,-1.59909 6.575011,-3.197843 9.86214,-4.796378 z" />
        <g
           transform="matrix(0.47409392,0,0,0.54633098,28.149272,18.44508)"
           id="g882">
          <path
             inkscape:original-d="m 60.70648,44.251114 c 0.181751,1.653877 0.363375,3.307884 0.544872,4.962025 0.302854,-2.059984 0.605538,-4.119549 0.908118,-6.179126 0.363348,1.497731 0.726622,2.995807 1.089743,4.49391 0.575303,-1.779081 1.15041,-3.55781 1.725424,-5.336518 0.363343,1.372886 0.726622,2.746147 1.089742,4.119416 0.817487,-1.404568 1.63474,-2.808823 2.451919,-4.213039 0.333068,1.716104 0.666083,3.370301 0.998931,5.055647 0.333124,-1.623027 0.66608,-3.245732 0.998931,-4.8684 0.787088,1.809746 1.574199,3.619961 2.361107,5.430139 0.605559,-1.997492 1.210952,-3.994716 1.816236,-5.991878 0.151469,2.215442 0.302833,4.431362 0.454061,6.647241 0.514755,-3.651633 1.029327,-7.302734 1.5438,-10.953904 0.423898,3.963088 0.847704,7.926625 1.271366,11.890133 0.605557,-3.682746 1.210952,-7.365147 1.816237,-11.047524 0.09094,3.775846 0.18175,7.552132 0.272435,11.328394 0.96882,-3.901225 1.937446,-7.802056 2.905979,-11.702887 -0.696069,4.805664 -1.39232,9.611839 -2.088671,14.417957 1.786147,-2.34078 3.632601,-4.681286 5.448711,-7.021731 -1.483042,2.527536 -2.966394,5.055514 -4.449781,7.583469 2.543013,0.124707 5.085593,0.24953 7.628192,0.374492 -2.996521,0.280726 -6.053994,0.561608 -9.081182,0.84261 2.270525,0.93614 4.540724,1.87233 6.810894,2.808692 -3.783597,0.436762 -7.567532,0.873683 -11.351486,1.310723 5.872841,1.154597 11.745126,2.309238 17.617497,3.464054 -6.17497,0.09349 -12.350284,0.187115 -18.525616,0.280869 5.781936,0.811286 11.563501,1.62267 17.345067,2.4342 -4.873366,0.06229 -9.747017,0.1247 -14.620712,0.187247 5.388439,0.998541 10.776466,1.997161 16.164507,2.995939 -5.327403,1.029703 -10.655128,2.059576 -15.982883,3.089563 6.962561,0.499207 13.924605,0.998514 20.886715,1.497969 -5.872266,0.686427 -11.744868,1.373007 -17.617489,2.059706 4.692187,0.499205 9.384019,0.998517 14.075832,1.497972 -5.963042,0.467973 -11.926491,0.936099 -17.88993,1.404345 7.810124,2.15325 15.559225,4.306529 23.338644,6.459999 -8.203116,0.717632 -16.406546,1.435422 -24.610009,2.153321 5.388386,0.467995 10.776463,0.936113 16.16451,1.404355 -5.054954,-0.09375 -10.11026,-0.187378 -15.165579,-0.280863 -0.151231,-1.935063 -0.30258,-3.869884 -0.454059,-5.80464 0.121202,2.683565 0.242291,5.367589 0.363247,8.051589 -1.301571,-2.621696 -2.603145,-5.243023 -3.904909,-7.864344 -0.726354,2.402816 -1.452863,4.805859 -2.179483,7.208976 -0.484235,-2.621747 -0.968534,-5.243018 -1.45299,-7.864341 -0.877687,2.184331 -1.755571,4.368953 -2.633544,6.553623 -0.03015,-2.216035 -0.06041,-4.431625 -0.09081,-6.647246 -0.453905,2.870817 -0.907992,5.742087 -1.362178,8.613332 -0.211777,-3.183487 -0.423662,-6.366505 -0.635683,-9.54956 -0.998765,2.808456 -1.997734,5.617255 -2.996791,8.426074 0.151489,-3.714048 0.302833,-7.489979 0.45406,-11.234767 -1.816043,0.311934 -3.632346,0.624022 -5.44871,0.936233 2.421968,-1.24854 4.843425,-2.496749 7.264947,-3.744925 -2.663519,-1.217154 -5.327501,-2.434332 -7.991442,-3.651302 3.239154,-0.967591 6.478038,-1.935008 9.716866,-2.902315 -4.025675,-1.622856 -8.051855,-3.245732 -12.077974,-4.868401 2.633714,-0.530672 5.267215,-1.061193 7.90063,-1.591593 -2.996497,-1.591635 -5.993455,-3.183316 -8.990371,-4.774778 2.724526,-0.405839 5.448836,-0.811532 8.173064,-1.217099 -3.84404,-2.028525 -7.688608,-4.057133 -11.533103,-6.085501 6.326767,0.09349 12.653244,0.187114 18.979675,0.280869 -4.146866,-0.811517 -8.294022,-1.622933 -12.441222,-2.434201 1.66505,-0.811551 3.329894,-1.622931 4.99465,-2.4342 z"
             inkscape:path-effect="#path-effect857"
             inkscape:connector-curvature="0"
             id="path878"
             d="m 60.797286,45.07806 c 0.09081,0.826946 0.272429,2.480953 0.514622,2.278016 0.242193,-0.202936 0.544878,-2.262501 0.877819,-2.543399 0.332942,-0.280897 0.696215,1.217179 1.165464,1.07666 0.469249,-0.140519 1.044355,-1.919249 1.513496,-2.122127 0.469141,-0.202879 0.832421,1.170382 1.422781,1.154701 0.590359,-0.01568 1.407613,-1.419935 1.985648,-1.264552 0.578036,0.155384 0.905116,1.810753 1.238128,1.841888 0.333013,0.03114 0.66597,-1.591569 1.22591,-1.497987 0.55994,0.09358 1.347049,1.903798 2.043321,1.810095 0.696272,-0.0937 1.301663,-2.090928 1.680012,-1.981771 0.378349,0.109157 0.529715,2.325077 0.86272,1.607188 0.333006,-0.717889 0.847578,-4.36899 1.316747,-4.213016 0.469169,0.155974 0.892975,4.119511 1.407603,4.259876 0.514627,0.140365 1.120022,-3.542036 1.468118,-3.495291 0.348097,0.04674 0.438912,3.82303 0.968685,3.760536 0.529772,-0.06249 1.498399,-3.963325 1.634623,-3.510905 0.136223,0.45242 -0.560028,5.258595 -0.0056,6.498596 0.55439,1.240002 2.38195,-1.115166 2.548473,-1.021625 0.166523,0.09354 -1.316829,2.621519 -0.787001,3.947929 0.529828,1.32641 3.072408,1.451233 2.845327,1.652675 -0.227081,0.201442 -3.284296,0.48511 -3.662665,1.0937 -0.37837,0.60859 1.891829,1.54478 1.135155,2.231322 -0.756674,0.686542 -4.54061,1.123462 -3.496187,1.919297 1.044422,0.795835 6.916706,1.950478 6.765423,2.57462 -0.151284,0.624142 -6.326598,0.717767 -6.523307,1.170295 -0.196709,0.452529 5.584856,1.263911 6.038967,1.700811 0.454111,0.436899 -4.41954,0.499316 -4.162183,1.02987 0.257357,0.530554 5.645384,1.529174 5.675727,2.543392 0.03034,1.014217 -5.297382,2.04409 -4.479994,2.808704 0.817388,0.764614 7.779432,1.263923 8.324366,1.856851 0.544933,0.592927 -5.327669,1.279508 -5.9179,1.872475 -0.590231,0.592966 4.101601,1.092278 3.465999,1.575981 -0.635603,0.483702 -6.599052,0.951828 -5.676812,2.266485 0.922239,1.314657 8.673493,3.460158 8.461672,4.89569 -0.211821,1.435531 -8.415252,2.153313 -9.822802,2.746274 -1.407549,0.592961 3.980528,1.061071 4.147079,1.248317 0.166552,0.187246 -4.888755,0.09362 -7.492096,-0.920715 -2.603341,-1.014337 -2.75469,-2.949158 -2.769827,-2.574756 -0.01514,0.374402 0.105952,3.058426 -0.484365,3.089613 -0.590317,0.03119 -1.891893,-2.59014 -2.905915,-2.699443 -1.014023,-0.109302 -1.740533,2.293741 -2.345992,2.184451 -0.60546,-0.109289 -1.089758,-2.73056 -1.77079,-2.949083 -0.681033,-0.218523 -1.558914,1.966101 -2.013006,1.950432 -0.454092,-0.01567 -0.48436,-2.231259 -0.726499,-1.90367 -0.242139,0.327588 -0.696224,3.198859 -1.029222,3.04275 -0.332999,-0.156108 -0.544882,-3.339126 -1.150244,-3.526443 -0.605361,-0.187317 -1.60433,2.621482 -2.028769,2.168853 -0.424438,-0.45263 -0.271834,-4.22851 -1.104172,-5.944881 -0.832339,-1.716371 -2.648641,-1.404282 -2.345835,-1.872474 0.302806,-0.468192 2.724263,-1.716401 2.603216,-2.949015 -0.121048,-1.232613 -2.78503,-2.449791 -2.497375,-3.542107 0.287655,-1.092315 3.526539,-2.059732 3.133071,-3.354778 -0.393469,-1.295045 -4.419648,-2.917922 -5.115809,-3.99462 -0.69616,-1.076698 1.93734,-1.60722 1.755748,-2.668211 -0.181592,-1.06099 -3.17855,-2.652672 -3.314696,-3.651344 -0.136145,-0.998672 2.588165,-1.404365 2.02821,-2.621389 -0.559956,-1.217024 -4.404524,-3.245631 -3.163348,-4.21308 1.241176,-0.967449 7.567653,-0.873827 8.657422,-1.232699 1.089768,-0.358872 -3.057388,-1.170289 -4.298434,-1.981746 -1.241047,-0.811457 0.423797,-1.622837 1.256162,-2.0285 0.832364,-0.405662 0.832362,-0.405662 0.923168,0.421284 z"
             style="fill:none;stroke:#f9ca35;stroke-width:3.11927462;stroke-linecap:butt;stroke-linejoin:miter;stroke-miterlimit:4;stroke-dasharray:none;stroke-opacity:1" />
          <path
             style="fill:none;stroke:#a03fb6;stroke-width:1.55963743;stroke-linecap:butt;stroke-linejoin:miter;stroke-miterlimit:4;stroke-dasharray:none;stroke-opacity:1"
             d="m 65.909006,47.741294 c 0.08616,0.805571 0.258487,2.416828 0.488285,2.219137 0.229798,-0.197691 0.516993,-2.204021 0.832895,-2.477659 0.315903,-0.273638 0.660585,1.185717 1.10582,1.04883 0.445235,-0.136886 0.99091,-1.869639 1.436042,-2.067275 0.445132,-0.197637 0.78982,1.140128 1.349968,1.124854 0.560148,-0.01527 1.335577,-1.383233 1.884037,-1.231838 0.548459,0.151395 0.858789,1.76392 1.174759,1.794252 0.31597,0.03033 0.631887,-1.55043 1.163171,-1.459268 0.531284,0.09116 1.278113,1.854587 1.938752,1.763309 0.66064,-0.09128 1.235051,-2.036881 1.594038,-1.930547 0.358986,0.106335 0.502605,2.26498 0.818568,1.565646 0.315963,-0.699333 0.804201,-4.256061 1.249361,-4.10412 0.445159,0.151942 0.847275,4.013031 1.335566,4.149769 0.488291,0.136737 1.062704,-3.450482 1.392987,-3.404946 0.330282,0.04554 0.41645,3.724213 0.919111,3.663335 0.502661,-0.06088 1.421717,-3.860881 1.550969,-3.420156 0.129252,0.440726 -0.531368,5.122674 -0.0052,6.330391 0.526195,1.207717 2.259875,-1.086109 2.417876,-0.994987 0.158002,0.09112 -1.249439,2.553761 -0.746725,3.845885 0.502713,1.292125 2.915168,1.413721 2.699704,1.609958 -0.215464,0.196236 -3.116208,0.472571 -3.475216,1.065431 -0.359007,0.592859 1.79501,1.504851 1.077062,2.173647 -0.717948,0.668797 -4.308236,1.094423 -3.317264,1.869688 0.990972,0.775264 6.562731,1.900062 6.419189,2.508072 -0.143542,0.608011 -6.00282,0.699216 -6.189463,1.140048 -0.186644,0.440832 5.299042,1.231242 5.729916,1.656848 0.430875,0.425606 -4.193364,0.486409 -3.949179,1.00325 0.244185,0.51684 5.356478,1.489649 5.385269,2.477651 0.02879,0.988003 -5.026285,1.991256 -4.250729,2.736106 0.775555,0.744851 7.381309,1.231254 7.898358,1.808856 0.517049,0.577601 -5.055016,1.246436 -5.615043,1.824076 -0.560028,0.57764 3.891694,1.064046 3.288625,1.535246 -0.603069,0.4712 -6.261341,0.927227 -5.38635,2.207889 0.87499,1.280663 8.229663,3.370737 8.028685,4.769164 -0.200977,1.398428 -7.984588,2.097661 -9.320106,2.675295 -1.335519,0.577635 3.77682,1.033643 3.934845,1.216046 0.158024,0.182402 -4.638566,0.09119 -7.108678,-0.896926 -2.470112,-0.988122 -2.613715,-2.872925 -2.628078,-2.508198 -0.01436,0.364726 0.10053,2.979379 -0.459578,3.009754 -0.560107,0.03037 -1.795072,-2.523195 -2.757202,-2.629669 -0.962129,-0.106474 -1.651459,2.234454 -2.225933,2.127991 -0.574474,-0.106462 -1.033989,-2.659988 -1.680168,-2.87286 -0.646179,-0.212871 -1.479132,1.915282 -1.909987,1.900017 -0.430855,-0.01526 -0.459576,-2.173593 -0.689325,-1.854468 -0.229748,0.319125 -0.660594,3.116178 -0.976551,2.96411 -0.315956,-0.152068 -0.516997,-3.252814 -1.091379,-3.43529 -0.574382,-0.182476 -1.522225,2.553718 -1.924943,2.112789 -0.402718,-0.440929 -0.257924,-4.119209 -1.047666,-5.791219 -0.789743,-1.67201 -2.513094,-1.367988 -2.225783,-1.824079 0.28731,-0.45609 2.584845,-1.672036 2.46999,-2.87279 -0.114855,-1.200754 -2.642504,-2.38647 -2.369568,-3.450552 0.272936,-1.064081 3.346068,-2.006493 2.972732,-3.268065 -0.373335,-1.261573 -4.193469,-2.842502 -4.854,-3.891369 -0.660532,-1.048868 1.838194,-1.565677 1.665894,-2.599245 -0.172301,-1.033567 -3.015885,-2.584107 -3.145062,-3.556965 -0.129178,-0.972858 2.455714,-1.368066 1.924414,-2.553634 -0.5313,-1.185568 -4.179119,-3.16174 -3.001461,-4.104182 1.177659,-0.942442 7.180371,-0.851241 8.214369,-1.200837 1.033999,-0.349596 -2.900921,-1.140039 -4.078455,-1.930522 -1.177534,-0.790483 0.40211,-1.580891 1.191877,-1.976068 0.789767,-0.395177 0.789772,-0.395177 0.87593,0.410394 z"
             id="path880"
             inkscape:connector-curvature="0"
             inkscape:path-effect="#path-effect886"
             inkscape:original-d="m 65.822848,46.935723 c 0.172449,1.611128 0.344778,3.222385 0.516986,4.833768 0.287355,-2.006737 0.57455,-4.013067 0.861644,-6.019409 0.344754,1.459018 0.689436,2.918373 1.033973,4.377753 0.545863,-1.733096 1.091537,-3.465849 1.637126,-5.198581 0.344747,1.337399 0.689435,2.675164 1.033972,4.012938 0.775651,-1.368264 1.551081,-2.736223 2.32644,-4.104142 0.316023,1.671747 0.631994,3.283186 0.947809,4.924971 0.316077,-1.581076 0.631994,-3.161837 0.947808,-4.742564 0.74681,1.762969 1.493639,3.526394 2.240276,5.289784 0.57457,-1.94586 1.14898,-3.891464 1.723289,-5.837003 0.143717,2.158177 0.287335,4.316822 0.430822,6.475425 0.488413,-3.557247 0.976652,-7.113975 1.464795,-10.670771 0.402205,3.860651 0.804322,7.72174 1.206302,11.582802 0.574568,-3.587557 1.14898,-7.174776 1.723289,-10.761974 0.08628,3.678251 0.172451,7.356928 0.258494,11.035583 0.919239,-3.800388 1.838295,-7.600391 2.757262,-11.400395 -0.660448,4.681449 -1.321067,9.363397 -1.981782,14.045288 1.69474,-2.280276 3.446699,-4.560286 5.169871,-6.840239 -1.407145,2.462208 -2.814589,4.924845 -4.222062,7.387457 2.412872,0.121485 4.825327,0.243082 7.237818,0.364812 -2.843179,0.27347 -5.744181,0.547093 -8.616449,0.820832 2.154328,0.911944 4.308346,1.823934 6.462334,2.736095 -3.589963,0.425472 -7.18025,0.8511 -10.770557,1.276842 5.572294,1.124753 11.144053,2.24955 16.715902,3.374518 -5.858965,0.09107 -11.718243,0.182279 -17.577545,0.27361 5.486038,0.790315 10.971723,1.580727 16.457403,2.371282 -4.623953,0.06067 -9.248192,0.121476 -13.87247,0.182406 5.112678,0.972731 10.224971,1.94554 15.337276,2.918502 -5.054771,1.003087 -10.109847,2.006341 -15.164948,3.009704 6.606242,0.486304 13.211996,0.972706 19.817814,1.459251 -5.571743,0.668684 -11.143808,1.337519 -16.715894,2.006468 4.452059,0.486303 8.903781,0.972707 13.355487,1.459253 -5.657868,0.455877 -11.31614,0.911903 -16.974394,1.368047 7.410434,2.097594 14.762962,4.195213 22.144251,6.293024 -7.7833,0.699078 -15.566911,1.398314 -23.350553,2.097673 5.112629,0.455892 10.224967,0.911903 15.337267,1.368047 -4.79626,-0.09134 -9.59285,-0.182543 -14.389457,-0.273615 -0.14349,-1.885046 -0.287095,-3.769849 -0.430823,-5.654603 0.114999,2.614212 0.229892,5.228864 0.344658,7.843481 -1.234961,-2.553931 -2.469926,-5.107501 -3.70507,-7.661071 -0.689182,2.340715 -1.378511,4.681643 -2.067948,7.022645 -0.459451,-2.553975 -0.918967,-5.107501 -1.37863,-7.661065 -0.832771,2.12787 -1.665727,4.256022 -2.498769,6.384228 -0.02861,-2.15876 -0.05732,-4.317089 -0.08617,-6.475431 -0.430676,2.796609 -0.861524,5.593662 -1.292466,8.390694 -0.20094,-3.101191 -0.401981,-6.201937 -0.603152,-9.302725 -0.947652,2.735868 -1.895496,5.472061 -2.843426,8.208288 0.143737,-3.618056 0.287335,-7.296383 0.430822,-10.944383 -1.723105,0.303871 -3.446456,0.607893 -5.169866,0.912033 2.298022,-1.216268 4.595557,-2.432213 6.893156,-3.648128 -2.527211,-1.185694 -5.05486,-2.37141 -7.582472,-3.556924 3.073388,-0.942581 6.146519,-1.884993 9.219596,-2.827297 -3.819659,-1.58091 -7.639793,-3.161839 -11.459871,-4.742566 2.498932,-0.516954 4.997658,-1.033763 7.496307,-1.550454 -2.843148,-1.550496 -5.686733,-3.101034 -8.53028,-4.651361 2.585095,-0.395348 5.169987,-0.790556 7.7548,-1.185642 -3.647316,-1.976092 -7.295136,-3.952263 -10.942884,-5.928205 6.002987,0.09108 12.005699,0.182278 18.008368,0.273608 -3.934645,-0.790538 -7.869565,-1.580982 -11.804529,-2.371282 1.57984,-0.790574 3.159484,-1.580982 4.739045,-2.371282 z" />
        </g>
      </g>
      <path
         style="fill:none;stroke:#a035b6;stroke-width:2.11666656;stroke-linecap:butt;stroke-linejoin:miter;stroke-miterlimit:4;stroke-dasharray:none;stroke-opacity:1"
         d="m -53.977103,65.656465 c 0.180182,-0.0899 0.180182,4.855304 0.946199,7.058232 0.766017,2.202928 2.297565,1.66348 3.018178,-0.943576 0.720613,-2.607056 0.630499,-7.283512 1.441467,-9.756001 0.810969,-2.472489 2.522887,-2.742243 3.333609,-0.58485 0.810723,2.157392 0.720611,6.743759 1.531648,9.08164 0.811037,2.33788 2.522757,2.427788 3.378543,0.04531 0.855785,-2.382474 0.855785,-7.418313 1.621676,-9.800862 0.765891,-2.382549 2.297601,-2.202714 2.928185,0.134525 0.630584,2.33724 0.360255,6.833568 1.216352,9.08153 0.856097,2.247962 2.838085,2.247962 3.783962,0.04526 0.945876,-2.202698 0.855769,-6.609022 1.846899,-8.811758 0.991129,-2.202735 3.063457,-2.202735 3.829192,-0.04525 0.765735,2.157482 0.225088,6.473858 0.99109,8.631916 0.766002,2.158057 2.838066,2.158057 3.874035,2.94e-4 1.03597,-2.157763 1.03597,-6.474142 1.801878,-8.676879 0.765909,-2.202738 2.297635,-2.292657 3.063309,-0.404967 0.765675,1.88769 0.765675,5.754653 3.063414,7.687914 2.297739,1.933261 6.8923125,1.933261 8.9193878,3.101905 2.0270752,1.168644 1.4864692,3.506515 -0.7210548,4.495701 -2.2075241,0.989186 -6.08113,0.629582 -8.153446,1.52862 -2.072317,0.899037 -2.342588,3.056809 -0.585347,4.180878 1.757241,1.124069 5.5407518,1.21397 7.3875978,2.112896 1.8468459,0.898927 1.756743,2.607392 -2.685e-4,3.641543 -1.7570115,1.034151 -5.1800943,1.393744 -6.9371063,2.33777 -1.757013,0.944025 -1.847102,2.472414 -0.315062,3.326751 1.532039,0.854338 4.6848142,1.03413 5.991136,2.292654 1.3063217,1.258525 0.7657036,3.596444 -1.0813909,4.585635 -1.8470945,0.98918 -5.0000321,0.62958 -6.5768281,1.43872 -1.576796,0.80914 -1.576796,2.78709 0.721092,3.82122 2.297889,1.03414 6.8921596,1.12404 9.0543603,2.02297 2.1622006,0.89893 1.891898,2.60737 -0.5410012,3.23688 -2.4328991,0.62951 -7.0269811,0.18003 -9.3245451,1.30387 -2.297565,1.12383 -2.297565,3.82107 0.09037,4.58537 2.387934,0.7643 7.1625435,-0.40446 9.5048911,-0.0899 2.3423476,0.31454 2.2522452,2.11292 -0.090466,3.23699 -2.3427115,1.12407 -6.9368858,1.57356 -9.2344798,3.10204 -2.297594,1.52847 -2.297594,4.13578 -3.243564,5.43966 -0.94597,1.30387 -2.837791,1.30387 -3.874045,-0.76454 -1.036254,-2.06842 -1.21642,-6.20384 -2.29736,-8.18181 -1.080941,-1.97798 -3.063173,-1.79814 -4.00932,0.13515 -0.946148,1.93328 -0.856066,5.61916 -2.297575,7.37259 -1.44151,1.75344 -4.414464,1.57362 -5.315455,-0.53966 -0.900991,-2.11329 0.270157,-6.15903 -0.540486,-7.82233 -0.810642,-1.6633 -3.60383,-0.94393 -4.685121,1.66372 -1.08129,2.60764 -0.450689,7.10277 -1.171383,9.1709 -0.720693,2.06812 -2.792794,1.70849 -3.693839,-0.71955 -0.901045,-2.42805 -0.630786,-6.92323 -1.53154,-9.03607 -0.900754,-2.11284 -2.973092,-1.84308 -3.784085,-0.0896 -0.810992,1.75344 -0.360579,4.98984 -1.4417,6.38361 -1.08112,1.39377 -3.693713,0.94424 -4.549665,-1.61864 -0.855952,-2.56289 0.04493,-7.23797 -1.441414,-9.48566 -1.486345,-2.24768 -5.36072,-2.06785 -7.658354,-3.46169 -2.297634,-1.39384 -3.018351,-4.36075 -1.486715,-5.48457 1.531637,-1.12382 5.31591,-0.40447 7.072668,-1.39358 1.756758,-0.98911 1.486456,-3.68664 -0.639264,-4.628873 -2.12572,-0.942233 -6.07267,-0.136539 -8.190102,-0.900977 -2.117433,-0.764439 -2.3877,-3.10199 -0.495764,-3.95606 1.891936,-0.854071 5.946655,-0.224618 7.8836,-0.854094 1.936945,-0.629476 1.756742,-2.517751 -0.49526,-3.821305 -2.252003,-1.303553 -6.577156,-2.022947 -8.829675,-3.461745 -2.25252,-1.438799 -2.432703,-3.596603 0.144916,-4.043707 2.577619,-0.447104 7.873718,0.807046 10.306198,0.267483 2.43248,-0.539563 1.981983,-2.877381 -0.675474,-4.046144 -2.657457,-1.168763 -7.52307,-1.168763 -9.370053,-2.292897 -1.846983,-1.124135 -0.675803,-3.37183 1.891636,-3.731404 2.56744,-0.359573 6.532224,1.169164 7.072757,-0.31438 0.540534,-1.483543 -2.34264,-5.979352 -2.522673,-8.496907 -0.180033,-2.517556 2.34269,-3.057041 3.972124,-1.305505 1.629433,1.751536 2.334436,5.621177 3.055217,8.228747 0.720781,2.607571 1.441509,3.866284 1.982132,1.932881 0.540622,-1.933402 0.900981,-7.058083 1.081163,-7.147988 z"
         id="path897"
         inkscape:connector-curvature="0"
         inkscape:path-effect="#path-effect899"
         inkscape:original-d="m -53.796921,60.621617 c 2.67e-4,4.944944 2.67e-4,9.890152 0,14.835627 1.53198,-0.539772 3.063528,-1.079221 4.59489,-1.618431 -0.08981,-4.674753 -0.179924,-9.351209 -0.270287,-14.026412 1.711993,-0.269991 3.423911,-0.539744 5.135465,-0.809214 -0.08981,4.58448 -0.179922,9.170847 -0.270287,13.756672 1.71219,0.08964 3.42391,0.179559 5.135466,0.269738 2.68e-4,-4.854847 2.68e-4,-9.890686 0,-14.835627 1.531817,0.179549 3.063527,0.359384 4.59489,0.539476 -0.26998,4.494696 -0.540307,8.991024 -0.810864,13.486933 1.982499,-2.66e-4 3.964487,-2.66e-4 5.946329,0 -0.08981,-4.405403 -0.179923,-8.811727 -0.270286,-13.217192 2.072349,-2.67e-4 4.144677,-2.67e-4 6.216616,0 -0.540237,4.314993 -1.080886,8.631369 -1.621729,12.947455 2.072617,-2.68e-4 4.144681,-2.68e-4 6.21662,0 2.67e-4,-4.315526 2.67e-4,-8.631905 0,-12.947455 1.531803,-0.09016 3.063528,-0.180095 4.594892,-0.269741 2.67e-4,3.865277 2.67e-4,7.73224 0,11.598762 4.595478,-2.65e-4 9.1900515,-2.65e-4 13.78467322,0 -0.54027662,2.337333 -1.08088272,4.675204 -1.62172432,7.013208 -3.8743741,-0.359967 -7.7479799,-0.71957 -11.6223719,-1.078955 -0.270039,2.157778 -0.54031,4.31555 -0.810864,6.473728 3.784814,0.08965 7.5683243,0.17956 11.3520852,0.269738 -0.089824,1.70796 -0.1799255,3.416425 -0.2702896,5.125035 -3.4239367,0.359442 -6.8470196,0.719035 -10.2709316,1.078954 -0.08984,1.528384 -0.179926,3.056773 -0.27029,4.585559 3.154208,0.17959 6.3069832,0.359385 9.460071,0.539478 -0.5402636,2.337282 -1.0808831,4.675201 -1.6217247,7.013197 -3.1535105,-0.35995 -6.3064473,-0.71956 -9.4600723,-1.07894 2.68e-4,1.97795 2.68e-4,3.9559 0,5.93424 4.595781,0.0897 9.1900528,0.17956 13.7846749,0.26973 -0.270006,1.70799 -0.5403093,3.41643 -0.8108637,5.12504 -4.5954354,-0.4499 -9.1895152,-0.8994 -13.7846742,-1.34868 2.67e-4,2.69725 2.67e-4,5.39449 0,8.09215 4.775826,-1.16924 9.550436,-2.33799 14.3252509,-3.50661 -0.089824,1.79789 -0.1799257,3.59627 -0.2702896,5.39479 -4.5953363,0.44937 -9.1895123,0.89885 -13.7846753,1.3487 2.68e-4,2.60735 2.68e-4,5.21466 0,7.82241 -1.89194,-2.7e-4 -3.783761,-2.7e-4 -5.676042,0 -0.179949,-4.13684 -0.360116,-8.27226 -0.540573,-12.40799 -1.981722,0.17956 -3.963954,0.3594 -5.946331,0.53949 0.09038,3.6867 0.180459,7.37258 0.270288,11.05928 -2.973106,-0.18009 -5.94606,-0.3599 -8.919493,-0.53948 1.171611,-4.04668 2.342761,-8.09242 3.513739,-12.13824 -2.792486,0.719 -5.585678,1.43835 -8.378919,2.15793 0.631011,4.49586 1.261614,8.99099 1.892015,13.48691 -2.072042,-0.35992 -4.144143,-0.71955 -6.216616,-1.07895 0.270583,-4.49638 0.540845,-8.99156 0.810863,-13.48694 -2.071808,0.26946 -4.144145,0.53922 -6.216615,0.80921 0.45081,3.23707 0.901227,6.47347 1.351437,9.71061 -2.612697,-0.44988 -5.225292,-0.8994 -7.838342,-1.34869 0.9013,-4.67613 1.802185,-9.35121 2.702876,-14.02642 -3.873601,0.17956 -7.747976,0.35939 -11.622367,0.53947 -0.720555,-2.9676 -1.441268,-5.93451 -2.162306,-8.90137 3.784054,0.71899 7.568327,1.43834 11.352083,2.15791 -0.270003,-2.69751 -0.540307,-5.39504 -0.810864,-8.092156 -3.9636,0.898783 -7.928168,1.618167 -11.892654,2.427656 -0.270041,-2.338193 -0.540308,-4.675744 -0.810865,-7.013212 4.054179,0.629062 8.108899,1.258514 12.162947,1.888169 -0.179915,-1.888335 -0.360117,-3.77661 -0.540577,-5.664514 -4.323786,-0.719475 -8.648938,-1.438873 -12.973807,-2.157907 -0.179934,-2.158283 -0.360117,-4.316087 -0.540576,-6.473729 5.315325,1.348276 10.631583,2.517294 15.946974,3.776343 -0.450198,-2.33792 -0.900693,-4.675738 -1.351442,-7.013205 -4.864474,-2.69e-4 -9.730087,-2.69e-4 -14.595532,0 1.17158,-2.248216 2.342761,-4.495911 3.51374,-6.743468 3.963922,1.528034 7.928706,3.056772 11.892656,4.585557 -2.882697,-4.495749 -5.76587,-8.991558 -8.649205,-13.486935 2.522915,-0.539734 5.045638,-1.079222 7.568056,-1.61843 0.720946,4.045314 1.441802,7.912067 2.1623,11.8685 0.721074,1.258582 1.441802,2.517296 2.162301,3.776343 0.360676,-5.125654 0.721035,-10.250335 1.081152,-15.375105 z" />
      <path
         inkscape:original-d="m -53.26033,62.25738 c 2.57e-4,4.717733 2.57e-4,9.435718 0,14.153962 1.469395,-0.514973 2.938371,-1.029636 4.40717,-1.544069 -0.08611,-4.459959 -0.172574,-8.921541 -0.259245,-13.381929 1.642051,-0.257585 3.284028,-0.514943 4.925657,-0.772034 -0.08611,4.373835 -0.172571,8.749468 -0.259243,13.124582 1.64224,0.08553 3.284027,0.171311 4.925658,0.257347 2.57e-4,-4.631776 2.57e-4,-9.436232 0,-14.153961 1.469236,0.171298 2.938367,0.342869 4.407168,0.514688 -0.258949,4.288172 -0.518233,8.577904 -0.777736,12.867235 1.901507,-2.54e-4 3.802519,-2.54e-4 5.703395,0 -0.08611,-4.202983 -0.172574,-8.406847 -0.259245,-12.609891 1.987687,-2.55e-4 3.97535,-2.55e-4 5.962643,0 -0.518169,4.11673 -1.03673,8.234779 -1.555474,12.352548 1.987939,-2.55e-4 3.975353,-2.55e-4 5.962641,0 2.56e-4,-4.117237 2.56e-4,-8.235285 0,-12.352548 1.469221,-0.08605 2.938369,-0.171819 4.40717,-0.257344 2.57e-4,3.687675 2.57e-4,7.376961 0,11.065823 4.407732,-2.53e-4 8.8145974,-2.53e-4 13.2215087,0 -0.5182042,2.229937 -1.0367243,4.460388 -1.5554699,6.690965 -3.7160884,-0.343427 -7.4314408,-0.686505 -11.1475468,-1.029378 -0.259006,2.05863 -0.518235,4.11726 -0.777737,6.176272 3.630188,0.08553 7.2591257,0.171312 10.8883029,0.257347 -0.086155,1.629481 -0.1725746,3.259445 -0.2592471,4.889549 -3.2840533,0.342931 -6.5672888,0.685997 -9.8513188,1.029379 -0.08617,1.458158 -0.172575,2.916321 -0.259248,4.374863 3.025345,0.17134 6.049316,0.342874 9.0735861,0.514688 -0.5181917,2.229891 -1.0367243,4.46039 -1.55547,6.690966 -3.0246761,-0.34342 -6.0488011,-0.68653 -9.0735861,-1.02937 2.56e-4,1.88707 2.56e-4,3.77413 0,5.66158 4.408022,0.0854 8.8145983,0.17129 13.2215091,0.25734 -0.2589748,1.6295 -0.5182348,3.25944 -0.7777359,4.88956 -4.4076911,-0.42926 -8.8140832,-0.8581 -13.2215102,-1.28673 2.57e-4,2.57335 2.57e-4,5.14663 0,7.72034 4.580713,-1.11553 9.1602592,-2.23057 13.7400018,-3.34547 -0.086155,1.71523 -0.1725749,3.431 -0.2592472,5.14689 -4.4075961,0.4287 -8.8140806,0.85754 -13.2215096,1.28672 2.56e-4,2.48755 2.56e-4,4.97508 0,7.463 -1.814646,-2.6e-4 -3.629178,-2.6e-4 -5.444153,0 -0.172595,-3.94678 -0.345402,-7.89218 -0.518487,-11.83787 -1.900757,0.17129 -3.802007,0.34287 -5.703396,0.51472 0.08666,3.51728 0.173085,7.03381 0.259246,10.55111 -2.851642,-0.17181 -5.703137,-0.34338 -8.555091,-0.51469 1.123746,-3.86076 2.247047,-7.7206 3.370188,-11.58051 -2.678401,0.68593 -5.35748,1.37224 -8.036603,2.05875 0.605232,4.28931 1.210069,8.57792 1.814717,12.86725 -1.98739,-0.34339 -3.974838,-0.6865 -5.962641,-1.02938 0.25953,-4.28978 0.518748,-8.57843 0.777737,-12.86725 -1.987166,0.25708 -3.97484,0.51446 -5.962641,0.77204 0.432395,3.08831 0.864409,6.17601 1.296226,9.26442 -2.505958,-0.42919 -5.011817,-0.85807 -7.518109,-1.28673 0.864477,-4.46127 1.728557,-8.92155 2.592448,-13.38194 -3.715345,0.17131 -7.431436,0.34288 -11.14754,0.51469 -0.691115,-2.83123 -1.382384,-5.66182 -2.073966,-8.49237 3.629458,0.68597 7.259128,1.37224 10.888302,2.05877 -0.258971,-2.57358 -0.518231,-5.14715 -0.777738,-7.720353 -3.80167,0.857485 -7.604268,1.543817 -11.406788,2.316113 -0.259008,-2.230759 -0.518232,-4.460907 -0.777736,-6.690973 3.888549,0.600156 7.777614,1.200686 11.666034,1.801412 -0.172563,-1.801572 -0.345403,-3.603082 -0.518489,-5.404242 -4.14714,-0.686417 -8.295591,-1.37276 -12.443769,-2.058757 -0.172583,-2.059116 -0.345404,-4.117772 -0.518491,-6.176275 5.098172,1.286326 10.197235,2.401628 15.295469,3.602828 -0.431804,-2.230494 -0.863897,-4.4609 -1.29623,-6.690965 -4.665739,-2.55e-4 -9.33257,-2.55e-4 -13.999239,0 1.123713,-2.144912 2.247049,-4.289332 3.370188,-6.433619 3.801977,1.457825 7.604782,2.916319 11.406789,4.374863 -2.764927,-4.289181 -5.530309,-8.578415 -8.295847,-12.867239 2.419841,-0.514939 4.839499,-1.029636 7.258865,-1.54407 0.691495,3.85944 1.3829,7.548527 2.07396,11.323168 0.691617,1.200756 1.382899,2.401632 2.073964,3.602831 0.345938,-4.890143 0.691577,-9.779357 1.03698,-14.668652 z"
         inkscape:path-effect="#path-effect915"
         inkscape:connector-curvature="0"
         id="path913"
         d="m -53.43315,67.060886 c 0.17282,-0.08577 0.17282,4.632212 0.907543,6.733921 0.734723,2.101709 2.2037,1.587047 2.894873,-0.90022 0.691172,-2.487267 0.604739,-6.94885 1.382576,-9.307734 0.777837,-2.358885 2.419814,-2.616244 3.197415,-0.557979 0.777601,2.058265 0.691171,6.433899 1.469075,8.664359 0.777903,2.230459 2.41969,2.316236 3.240513,0.04323 0.820822,-2.273003 0.820822,-7.077459 1.555424,-9.350534 0.734601,-2.273074 2.203732,-2.101503 2.808554,0.128344 0.604822,2.229847 0.345537,6.519579 1.16666,8.664252 0.821123,2.144673 2.722135,2.144673 3.629369,0.04318 0.907234,-2.101489 0.820807,-6.305354 1.771445,-8.406878 0.950639,-2.101525 2.938302,-2.101525 3.672754,-0.04317 0.734452,2.058351 0.215894,6.176401 0.9506,8.235299 0.734706,2.058898 2.72212,2.058898 3.715764,2.79e-4 0.993644,-2.058618 0.993644,-6.176666 1.728262,-8.278193 0.734618,-2.101528 2.203765,-2.187314 2.938159,-0.38636 0.734393,1.800955 0.734393,5.490241 2.938259,7.334672 2.203866,1.844431 6.6107314,1.844431 8.5549918,2.959378 1.9442604,1.114947 1.4257404,3.345398 -0.6915963,4.289133 -2.1173366,0.943735 -5.8326885,0.600654 -7.8203425,1.458382 -1.987653,0.857727 -2.246883,2.916357 -0.561433,3.988777 1.685451,1.07242 5.3143886,1.158191 7.0857825,2.015813 1.7713939,0.857622 1.6849722,2.487586 -2.578e-4,3.474221 -1.68523,0.986635 -4.9684647,1.329705 -6.6536957,2.230355 -1.68523,0.90065 -1.771639,2.358813 -0.30219,3.173895 1.469449,0.815082 4.49342,0.986613 5.7463727,2.187311 1.2529528,1.200698 0.7344215,3.431198 -1.0372118,4.374936 -1.7716329,0.943741 -4.7957619,0.600661 -6.3081369,1.372621 -1.512375,0.77196 -1.512375,2.65902 0.691632,3.64564 2.204007,0.98663 6.6105859,1.07239 8.6844521,1.93002 2.0738662,0.85762 1.8146071,2.48756 -0.5188994,3.08815 -2.3335065,0.6006 -6.7398987,0.17176 -8.9435977,1.24397 -2.203699,1.07221 -2.203699,3.64549 0.08668,4.37467 2.29038,0.72919 6.8699248,-0.38586 9.1165763,-0.0858 2.2466515,0.30007 2.1602287,2.01584 -0.086772,3.08826 -2.2470008,1.07243 -6.6534852,1.50127 -8.8572122,2.95951 -2.203726,1.45824 -2.203726,3.94577 -3.111049,5.18973 -0.907323,1.24396 -2.721855,1.24396 -3.715775,-0.72942 -0.99392,-1.97339 -1.166724,-5.91879 -2.2035,-7.80587 -1.036777,-1.88708 -2.938026,-1.7155 -3.845521,0.12894 -0.907496,1.84445 -0.821093,5.36098 -2.20371,7.03384 -1.382618,1.67287 -4.234114,1.50132 -5.098292,-0.51488 -0.864178,-2.01619 0.259122,-5.87603 -0.518402,-7.4629 -0.777523,-1.58687 -3.456603,-0.90057 -4.493716,1.58727 -1.037114,2.48784 -0.432275,6.77645 -1.123527,8.74954 -0.691252,1.97309 -2.6787,1.62998 -3.542933,-0.6865 -0.864232,-2.31647 -0.605013,-6.60512 -1.468968,-8.62088 -0.863954,-2.01576 -2.85163,-1.75839 -3.629491,-0.0855 -0.777861,1.67287 -0.345847,4.76057 -1.382797,6.0903 -1.03695,1.32974 -3.542809,0.90086 -4.363792,-1.54427 -0.820982,-2.44513 0.0431,-6.90541 -1.382525,-9.04981 -1.425621,-2.14441 -5.141712,-1.97284 -7.345475,-3.30263 -2.203764,-1.32979 -2.895037,-4.16038 -1.425975,-5.23256 1.469062,-1.07219 5.098726,-0.38589 6.783715,-1.32955 1.684988,-0.94367 1.42573,-3.51724 -0.61306,-4.416205 -2.03879,-0.898963 -5.824662,-0.130253 -7.855588,-0.859567 -2.030926,-0.729314 -2.290151,-2.959462 -0.475508,-3.77429 1.814643,-0.814827 5.703707,-0.214297 7.561519,-0.81485 1.857811,-0.600554 1.684972,-2.402064 -0.475026,-3.645723 -2.159997,-1.243659 -6.308449,-1.929998 -8.468943,-3.302688 -2.160494,-1.37269 -2.333316,-3.431346 0.1389,-3.857929 2.472216,-0.426583 7.552137,0.769986 9.88524,0.255217 2.333103,-0.514769 1.90101,-2.745175 -0.647878,-3.860236 -2.548889,-1.115061 -7.21572,-1.115061 -8.987246,-2.187542 -1.771526,-1.072481 -0.648192,-3.216902 1.814356,-3.559954 2.462548,-0.343051 6.265352,1.115444 6.783803,-0.299933 0.518451,-1.415377 -2.246931,-5.704611 -2.41961,-8.106492 -0.17268,-2.40188 2.246978,-2.916578 3.80984,-1.245536 1.562861,1.671041 2.239067,5.362912 2.930402,7.850671 0.691335,2.487759 1.382617,3.688634 1.901153,1.844067 0.518535,-1.844568 0.864171,-6.733782 1.036992,-6.819554 z"
         style="fill:none;stroke:#f9ca35;stroke-width:1.27852762;stroke-linecap:butt;stroke-linejoin:miter;stroke-miterlimit:4;stroke-dasharray:none;stroke-opacity:1" />
      <path
         inkscape:original-d="m 39.865626,60.621617 c 2.67e-4,4.944944 2.67e-4,9.890152 0,14.835627 1.53198,-0.539772 3.063528,-1.079221 4.59489,-1.618431 -0.08981,-4.674753 -0.179924,-9.351209 -0.270287,-14.026412 1.711993,-0.269991 3.423911,-0.539744 5.135465,-0.809214 -0.08981,4.58448 -0.179922,9.170847 -0.270287,13.756672 1.71219,0.08964 3.42391,0.179559 5.135466,0.269738 2.68e-4,-4.854847 2.68e-4,-9.890686 0,-14.835627 1.531817,0.179549 3.063527,0.359384 4.59489,0.539476 -0.26998,4.494696 -0.540307,8.991024 -0.810864,13.486933 1.982499,-2.66e-4 3.964487,-2.66e-4 5.946329,0 -0.08981,-4.405403 -0.179923,-8.811727 -0.270286,-13.217192 2.072349,-2.67e-4 4.144677,-2.67e-4 6.216616,0 -0.540237,4.314993 -1.080886,8.631369 -1.621729,12.947455 2.072617,-2.68e-4 4.144681,-2.68e-4 6.21662,0 2.67e-4,-4.315526 2.67e-4,-8.631905 0,-12.947455 1.531803,-0.09016 3.063528,-0.180095 4.594892,-0.269741 2.67e-4,3.865277 2.67e-4,7.73224 0,11.598762 4.595478,-2.65e-4 9.190054,-2.65e-4 13.784679,0 -0.540277,2.337333 -1.080884,4.675204 -1.621726,7.013208 -3.874376,-0.359967 -7.747984,-0.71957 -11.622376,-1.078955 -0.270038,2.157778 -0.54031,4.31555 -0.810864,6.473728 3.784815,0.08965 7.568326,0.17956 11.352089,0.269738 -0.08982,1.70796 -0.179925,3.416425 -0.27029,5.125035 -3.423938,0.359442 -6.847023,0.719035 -10.270935,1.078954 -0.08984,1.528384 -0.179926,3.056773 -0.27029,4.585559 3.154208,0.17959 6.306984,0.359385 9.460074,0.539478 -0.540264,2.337282 -1.080884,4.675201 -1.621726,7.013197 -3.153512,-0.35995 -6.306449,-0.71956 -9.460074,-1.07894 2.68e-4,1.97795 2.68e-4,3.9559 0,5.93424 4.595781,0.0897 9.190055,0.17956 13.78468,0.26973 -0.270007,1.70799 -0.54031,3.41643 -0.810865,5.12504 -4.595438,-0.4499 -9.189519,-0.8994 -13.784678,-1.34868 2.67e-4,2.69725 2.67e-4,5.39449 0,8.09215 4.775826,-1.16924 9.550438,-2.33799 14.325255,-3.50661 -0.08982,1.79789 -0.179925,3.59627 -0.270289,5.39479 -4.595339,0.44937 -9.189517,0.89885 -13.78468,1.3487 2.68e-4,2.60735 2.68e-4,5.21466 0,7.82241 -1.89194,-2.7e-4 -3.783761,-2.7e-4 -5.676042,0 -0.179949,-4.13684 -0.360116,-8.27226 -0.540573,-12.40799 -1.981722,0.17956 -3.963954,0.3594 -5.946331,0.53949 0.09038,3.6867 0.180459,7.37258 0.270288,11.05928 -2.973106,-0.18009 -5.94606,-0.3599 -8.919493,-0.53948 1.171611,-4.04668 2.342761,-8.09242 3.513739,-12.13824 -2.792486,0.719 -5.585678,1.43835 -8.378919,2.15793 0.631011,4.49586 1.261614,8.99099 1.892015,13.48691 -2.072042,-0.35992 -4.144143,-0.71955 -6.216616,-1.07895 0.270583,-4.49638 0.540845,-8.99156 0.810863,-13.48694 -2.071808,0.26946 -4.144145,0.53922 -6.216615,0.80921 0.45081,3.23707 0.901227,6.47347 1.351437,9.71061 -2.612697,-0.44988 -5.225292,-0.8994 -7.838342,-1.34869 0.9013,-4.67613 1.802185,-9.35121 2.702876,-14.02642 -3.873601,0.17956 -7.747976,0.35939 -11.622367,0.53947 -0.720555,-2.9676 -1.441268,-5.93451 -2.162306,-8.90137 3.784054,0.71899 7.568327,1.43834 11.352083,2.15791 -0.270003,-2.69751 -0.540307,-5.39504 -0.810864,-8.092156 -3.9636,0.898783 -7.928168,1.618167 -11.892654,2.427656 -0.270041,-2.338193 -0.540308,-4.675744 -0.810865,-7.013212 4.054179,0.629062 8.108899,1.258514 12.162947,1.888169 -0.179915,-1.888335 -0.360117,-3.77661 -0.540577,-5.664514 -4.323786,-0.719475 -8.648938,-1.438873 -12.973807,-2.157907 -0.179934,-2.158283 -0.360117,-4.316087 -0.540576,-6.473729 5.315325,1.348276 10.631583,2.517294 15.946974,3.776343 -0.450198,-2.33792 -0.900693,-4.675738 -1.351442,-7.013205 -4.864474,-2.69e-4 -9.730087,-2.69e-4 -14.595532,0 1.17158,-2.248216 2.342761,-4.495911 3.51374,-6.743468 3.963922,1.528034 7.928706,3.056772 11.892656,4.585557 -2.882697,-4.495749 -5.76587,-8.991558 -8.649205,-13.486935 2.522915,-0.539734 5.045638,-1.079222 7.568056,-1.61843 0.720946,4.045314 1.441802,7.912067 2.1623,11.8685 0.721074,1.258582 1.441802,2.517296 2.162301,3.776343 0.360676,-5.125654 0.721035,-10.250335 1.081152,-15.375105 z"
         inkscape:path-effect="#path-effect919"
         inkscape:connector-curvature="0"
         id="path917"
         d="m 39.685444,65.656465 c 0.180182,-0.0899 0.180182,4.855304 0.946199,7.058232 0.766017,2.202928 2.297565,1.66348 3.018178,-0.943576 0.720613,-2.607056 0.630499,-7.283512 1.441467,-9.756001 0.810969,-2.472489 2.522887,-2.742243 3.333609,-0.58485 0.810723,2.157392 0.720611,6.743759 1.531648,9.08164 0.811037,2.33788 2.522757,2.427788 3.378543,0.04531 0.855785,-2.382474 0.855785,-7.418313 1.621676,-9.800862 0.765891,-2.382549 2.297601,-2.202714 2.928185,0.134525 0.630584,2.33724 0.360255,6.833568 1.216352,9.08153 0.856097,2.247962 2.838085,2.247962 3.783962,0.04526 0.945876,-2.202698 0.855769,-6.609022 1.846899,-8.811758 0.991129,-2.202735 3.063457,-2.202735 3.829192,-0.04525 0.765735,2.157482 0.225088,6.473858 0.99109,8.631916 0.766002,2.158057 2.838066,2.158057 3.874035,2.94e-4 1.03597,-2.157763 1.03597,-6.474142 1.801878,-8.676879 0.765909,-2.202738 2.297635,-2.292657 3.063309,-0.404967 0.765675,1.88769 0.765675,5.754653 3.063414,7.687914 2.297739,1.933261 6.892315,1.933261 8.919392,3.101905 2.027076,1.168644 1.48647,3.506515 -0.721056,4.495701 -2.207525,0.989186 -6.081133,0.629582 -8.153449,1.52862 -2.072317,0.899037 -2.342588,3.056809 -0.585346,4.180878 1.757241,1.124069 5.540753,1.21397 7.387599,2.112896 1.846847,0.898927 1.756744,2.607392 -2.68e-4,3.641543 -1.757012,1.034151 -5.180097,1.393744 -6.937109,2.33777 -1.757013,0.944025 -1.847102,2.472414 -0.315062,3.326751 1.532039,0.854338 4.684815,1.03413 5.991138,2.292654 1.306322,1.258525 0.765704,3.596444 -1.081392,4.585635 -1.847095,0.98918 -5.000033,0.62958 -6.576829,1.43872 -1.576796,0.80914 -1.576796,2.78709 0.721092,3.82122 2.297889,1.03414 6.892162,1.12404 9.054364,2.02297 2.162202,0.89893 1.891898,2.60737 -0.541002,3.23688 -2.432901,0.62951 -7.026984,0.18003 -9.324548,1.30387 -2.297565,1.12383 -2.297565,3.82107 0.09037,4.58537 2.387935,0.7643 7.162546,-0.40446 9.504894,-0.0899 2.342349,0.31454 2.252247,2.11292 -0.09047,3.23699 -2.342713,1.12407 -6.936889,1.57356 -9.234483,3.10204 -2.297594,1.52847 -2.297594,4.13578 -3.243564,5.43966 -0.94597,1.30387 -2.837791,1.30387 -3.874045,-0.76454 -1.036254,-2.06842 -1.21642,-6.20384 -2.29736,-8.18181 -1.080941,-1.97798 -3.063173,-1.79814 -4.00932,0.13515 -0.946148,1.93328 -0.856066,5.61916 -2.297575,7.37259 -1.44151,1.75344 -4.414464,1.57362 -5.315455,-0.53966 -0.900991,-2.11329 0.270157,-6.15903 -0.540486,-7.82233 -0.810642,-1.6633 -3.60383,-0.94393 -4.685121,1.66372 -1.08129,2.60764 -0.450689,7.10277 -1.171383,9.1709 -0.720693,2.06812 -2.792794,1.70849 -3.693839,-0.71955 -0.901045,-2.42805 -0.630786,-6.92323 -1.53154,-9.03607 -0.900754,-2.11284 -2.973092,-1.84308 -3.784085,-0.0896 -0.810992,1.75344 -0.360579,4.98984 -1.4417,6.38361 -1.08112,1.39377 -3.693713,0.94424 -4.549665,-1.61864 -0.855952,-2.56289 0.04493,-7.23797 -1.441414,-9.48566 -1.486345,-2.24768 -5.36072,-2.06785 -7.658354,-3.46169 -2.297634,-1.39384 -3.018351,-4.36075 -1.486715,-5.48457 1.531637,-1.12382 5.31591,-0.40447 7.072668,-1.39358 1.756758,-0.98911 1.486456,-3.68664 -0.639264,-4.628873 -2.12572,-0.942233 -6.07267,-0.136539 -8.190102,-0.900977 -2.117433,-0.764439 -2.3877,-3.10199 -0.495764,-3.95606 1.891936,-0.854071 5.946655,-0.224618 7.8836,-0.854094 1.936945,-0.629476 1.756742,-2.517751 -0.49526,-3.821305 -2.252003,-1.303553 -6.577156,-2.022947 -8.829675,-3.461745 -2.25252,-1.438799 -2.432703,-3.596603 0.144916,-4.043707 2.577619,-0.447104 7.873718,0.807046 10.306198,0.267483 2.43248,-0.539563 1.981983,-2.877381 -0.675474,-4.046144 -2.657457,-1.168763 -7.52307,-1.168763 -9.370053,-2.292897 -1.846983,-1.124135 -0.675803,-3.37183 1.891636,-3.731404 2.56744,-0.359573 6.532224,1.169164 7.072757,-0.31438 0.540534,-1.483543 -2.34264,-5.979352 -2.522673,-8.496907 -0.180033,-2.517556 2.34269,-3.057041 3.972124,-1.305505 1.629433,1.751536 2.334436,5.621177 3.055217,8.228747 0.720781,2.607571 1.441509,3.866284 1.982132,1.932881 0.540622,-1.933402 0.900981,-7.058083 1.081163,-7.147988 z"
         style="fill:none;stroke:#a035b6;stroke-width:2.11666656;stroke-linecap:butt;stroke-linejoin:miter;stroke-miterlimit:4;stroke-dasharray:none;stroke-opacity:1" />
      <path
         style="fill:none;stroke:#f9ca35;stroke-width:1.27852762;stroke-linecap:butt;stroke-linejoin:miter;stroke-miterlimit:4;stroke-dasharray:none;stroke-opacity:1"
         d="m 47.108568,62.82755 c 0.17282,-0.08577 0.17282,4.632212 0.907543,6.733921 0.734723,2.101709 2.2037,1.587047 2.894873,-0.90022 0.691172,-2.487267 0.604739,-6.94885 1.382576,-9.307734 0.777837,-2.358885 2.419814,-2.616244 3.197415,-0.557979 0.777601,2.058265 0.691171,6.433899 1.469075,8.664359 0.777903,2.230459 2.41969,2.316236 3.240513,0.04323 0.820822,-2.273003 0.820822,-7.077459 1.555424,-9.350534 0.734601,-2.273074 2.203732,-2.101503 2.808554,0.128344 0.604822,2.229847 0.345537,6.519579 1.16666,8.664252 0.821123,2.144673 2.722135,2.144673 3.629369,0.04318 0.907234,-2.101489 0.820807,-6.305354 1.771445,-8.406878 0.950639,-2.101525 2.938302,-2.101525 3.672754,-0.04317 0.734452,2.058351 0.215894,6.176401 0.9506,8.235299 0.734706,2.058898 2.72212,2.058898 3.715764,2.8e-4 0.993644,-2.058619 0.993644,-6.176667 1.728262,-8.278194 0.734618,-2.101528 2.203765,-2.187314 2.938159,-0.38636 0.734393,1.800955 0.734393,5.490241 2.938259,7.334672 2.203866,1.844431 6.610734,1.844431 8.554995,2.959378 1.944261,1.114947 1.425741,3.345398 -0.691597,4.289133 -2.117338,0.943734 -5.832691,0.600654 -7.820345,1.458382 -1.987653,0.857727 -2.246883,2.916357 -0.561433,3.988777 1.685451,1.07242 5.31439,1.158191 7.085785,2.015813 1.771395,0.857622 1.684973,2.487586 -2.58e-4,3.474221 -1.685232,0.986635 -4.968467,1.329705 -6.653698,2.230355 -1.68523,0.90065 -1.771639,2.358813 -0.30219,3.173895 1.469449,0.815082 4.493421,0.986613 5.746374,2.187311 1.252954,1.200698 0.734423,3.431193 -1.037212,4.374931 -1.771634,0.943738 -4.795763,0.600662 -6.308138,1.37262 -1.512375,0.771957 -1.512375,2.659005 0.691632,3.645622 2.204007,0.98663 6.610588,1.07239 8.684455,1.93002 2.073867,0.85762 1.814608,2.48756 -0.5189,3.08815 -2.333508,0.6006 -6.739901,0.17176 -8.9436,1.24397 -2.203699,1.07221 -2.203699,3.64549 0.08668,4.37467 2.290379,0.72919 6.869925,-0.38586 9.116577,-0.0858 2.246653,0.30007 2.16023,2.01584 -0.08677,3.08826 -2.247002,1.07243 -6.653487,1.50127 -8.857214,2.95951 -2.203726,1.45824 -2.203726,3.94577 -3.111049,5.18973 -0.907323,1.24396 -2.721855,1.24396 -3.715775,-0.72942 -0.99392,-1.97339 -1.166724,-5.91879 -2.2035,-7.80587 -1.036777,-1.88708 -2.938026,-1.7155 -3.845521,0.12894 -0.907496,1.84445 -0.821093,5.36098 -2.20371,7.03384 -1.382618,1.67287 -4.234114,1.50132 -5.098292,-0.51488 -0.864178,-2.01619 0.259122,-5.87603 -0.518402,-7.4629 -0.777523,-1.58687 -3.456603,-0.90057 -4.493716,1.58727 -1.037114,2.48784 -0.432275,6.77645 -1.123527,8.74954 -0.691252,1.97309 -2.6787,1.62998 -3.542933,-0.6865 -0.864232,-2.31647 -0.605013,-6.60512 -1.468968,-8.62088 -0.863954,-2.01576 -2.85163,-1.75839 -3.629491,-0.0855 -0.777861,1.67287 -0.345847,4.76057 -1.382797,6.0903 -1.03695,1.32974 -3.542809,0.90086 -4.363792,-1.54427 -0.820982,-2.44513 0.0431,-6.90541 -1.382525,-9.04981 -1.425621,-2.14441 -5.141712,-1.97284 -7.345476,-3.30263 -2.203763,-1.32979 -2.895037,-4.16038 -1.425974,-5.23256 1.469062,-1.072185 5.098726,-0.38589 6.783714,-1.329549 1.684989,-0.943663 1.425732,-3.517219 -0.613059,-4.416182 -2.03879,-0.898963 -5.824662,-0.130253 -7.855588,-0.859567 -2.030926,-0.729314 -2.290151,-2.959462 -0.475508,-3.77429 1.814643,-0.814827 5.703707,-0.214297 7.561519,-0.81485 1.857811,-0.600554 1.684972,-2.402064 -0.475026,-3.645723 -2.159997,-1.243659 -6.308449,-1.929998 -8.468943,-3.302688 -2.160494,-1.37269 -2.333316,-3.431346 0.1389,-3.857929 2.472216,-0.426583 7.552137,0.769986 9.88524,0.255217 2.333103,-0.514769 1.90101,-2.745175 -0.647878,-3.860236 -2.548889,-1.115061 -7.21572,-1.115061 -8.987246,-2.187542 -1.771526,-1.072481 -0.648192,-3.216902 1.814356,-3.559954 2.462548,-0.343051 6.265352,1.115444 6.783803,-0.299933 0.518451,-1.415377 -2.246931,-5.704611 -2.41961,-8.106492 -0.17268,-2.40188 2.246978,-2.916578 3.80984,-1.245536 1.562861,1.671041 2.239067,5.362912 2.930402,7.850671 0.691335,2.487759 1.382617,3.688634 1.901153,1.844067 0.518535,-1.844568 0.864171,-6.733782 1.036992,-6.819554 z"
         id="path921"
         inkscape:connector-curvature="0"
         inkscape:path-effect="#path-effect923"
         inkscape:original-d="m 47.281388,58.024044 c 2.57e-4,4.717733 2.57e-4,9.435718 0,14.153962 1.469395,-0.514973 2.938371,-1.029636 4.40717,-1.544069 -0.08611,-4.459959 -0.172574,-8.921541 -0.259245,-13.381929 1.642051,-0.257585 3.284028,-0.514943 4.925657,-0.772034 -0.08611,4.373835 -0.172571,8.749468 -0.259243,13.124582 1.64224,0.08553 3.284027,0.171311 4.925658,0.257347 2.57e-4,-4.631776 2.57e-4,-9.436232 0,-14.153961 1.469236,0.171298 2.938367,0.342869 4.407168,0.514688 -0.258949,4.288172 -0.518233,8.577904 -0.777736,12.867235 1.901507,-2.54e-4 3.802519,-2.54e-4 5.703395,0 -0.08611,-4.202983 -0.172574,-8.406847 -0.259245,-12.609891 1.987687,-2.55e-4 3.97535,-2.55e-4 5.962643,0 -0.518169,4.11673 -1.03673,8.234779 -1.555474,12.352548 1.987939,-2.55e-4 3.975353,-2.55e-4 5.962641,0 2.57e-4,-4.117237 2.57e-4,-8.235285 0,-12.352548 1.469221,-0.08605 2.938369,-0.171819 4.40717,-0.257344 2.57e-4,3.687675 2.57e-4,7.376961 0,11.065823 4.407732,-2.53e-4 8.8146,-2.53e-4 13.221513,0 -0.518204,2.229937 -1.036725,4.460388 -1.555471,6.690965 -3.71609,-0.343427 -7.431444,-0.686505 -11.14755,-1.029378 -0.259006,2.05863 -0.518235,4.11726 -0.777737,6.176272 3.630188,0.08553 7.259127,0.171312 10.888306,0.257347 -0.08615,1.629481 -0.172575,3.259445 -0.259247,4.889549 -3.284056,0.342931 -6.567292,0.685997 -9.851322,1.029379 -0.08617,1.458158 -0.172575,2.916321 -0.259248,4.374863 3.025345,0.17134 6.049317,0.342874 9.073589,0.514688 -0.518192,2.229891 -1.036725,4.460385 -1.555471,6.69096 -3.024678,-0.343417 -6.048803,-0.686524 -9.073588,-1.029364 2.57e-4,1.887061 2.57e-4,3.774109 0,5.661556 4.408022,0.0854 8.8146,0.17129 13.221513,0.25734 -0.258975,1.6295 -0.518235,3.25944 -0.777736,4.88956 -4.407694,-0.42926 -8.814087,-0.8581 -13.221514,-1.28673 2.57e-4,2.57335 2.57e-4,5.14663 0,7.72034 4.580713,-1.11553 9.16026,-2.23057 13.740005,-3.34547 -0.08615,1.71523 -0.172574,3.431 -0.259247,5.14689 -4.407599,0.4287 -8.814084,0.85754 -13.221513,1.28672 2.57e-4,2.48755 2.57e-4,4.97508 0,7.463 -1.814646,-2.6e-4 -3.629178,-2.6e-4 -5.444153,0 -0.172595,-3.94678 -0.345402,-7.89218 -0.518487,-11.83787 -1.900757,0.17129 -3.802007,0.34287 -5.703396,0.51472 0.08666,3.51728 0.173085,7.03381 0.259246,10.55111 -2.851642,-0.17181 -5.703137,-0.34338 -8.555091,-0.51469 1.123746,-3.86076 2.247047,-7.7206 3.370188,-11.58051 -2.678401,0.68593 -5.35748,1.37224 -8.036603,2.05875 0.605232,4.28931 1.210069,8.57792 1.814717,12.86725 -1.98739,-0.34339 -3.974838,-0.6865 -5.962641,-1.02938 0.25953,-4.28978 0.518748,-8.57843 0.777737,-12.86725 -1.987166,0.25708 -3.97484,0.51446 -5.962641,0.77204 0.432395,3.08831 0.864409,6.17601 1.296226,9.26442 -2.505958,-0.42919 -5.011817,-0.85807 -7.518109,-1.28673 0.864477,-4.46127 1.728557,-8.92155 2.592448,-13.38194 -3.715345,0.17131 -7.431436,0.34288 -11.14754,0.51469 -0.691115,-2.83123 -1.382384,-5.66182 -2.073966,-8.492364 3.629458,0.685967 7.259128,1.372234 10.888302,2.058764 -0.258971,-2.573571 -0.518231,-5.147126 -0.777738,-7.720329 -3.80167,0.857482 -7.604268,1.543819 -11.406788,2.316113 -0.259008,-2.230759 -0.518232,-4.460907 -0.777736,-6.690973 3.888549,0.600156 7.777614,1.200686 11.666034,1.801412 -0.172563,-1.801572 -0.345403,-3.603082 -0.518489,-5.404242 -4.14714,-0.686417 -8.295591,-1.37276 -12.443769,-2.058757 -0.172583,-2.059116 -0.345404,-4.117772 -0.518491,-6.176275 5.098172,1.286326 10.197235,2.401628 15.295469,3.602828 -0.431804,-2.230494 -0.863897,-4.4609 -1.29623,-6.690965 -4.665739,-2.55e-4 -9.33257,-2.55e-4 -13.999239,0 1.123713,-2.144912 2.247049,-4.289332 3.370188,-6.433619 3.801977,1.457825 7.604782,2.916319 11.406789,4.374863 -2.764927,-4.289181 -5.530309,-8.578415 -8.295847,-12.867239 2.419841,-0.514939 4.839499,-1.029636 7.258865,-1.54407 0.691495,3.85944 1.3829,7.548527 2.07396,11.323168 0.691617,1.200756 1.382899,2.401632 2.073964,3.602831 0.345938,-4.890143 0.691577,-9.779357 1.03698,-14.668652 z" />
    </g>
  </g>
</svg>
