<?xml version="1.0" encoding="UTF-8" standalone="no"?>
<!-- Created with Inkscape (http://www.inkscape.org/) -->

<svg
   xmlns:dc="http://purl.org/dc/elements/1.1/"
   xmlns:cc="http://creativecommons.org/ns#"
   xmlns:rdf="http://www.w3.org/1999/02/22-rdf-syntax-ns#"
   xmlns:svg="http://www.w3.org/2000/svg"
   xmlns="http://www.w3.org/2000/svg"
   xmlns:sodipodi="http://sodipodi.sourceforge.net/DTD/sodipodi-0.dtd"
   xmlns:inkscape="http://www.inkscape.org/namespaces/inkscape"
   width="77.526993mm"
   height="75.653877mm"
   viewBox="0 0 77.526993 75.653877"
   version="1.1"
   id="svg8"
   inkscape:version="0.92.2 (30a58d1, 2017-08-07)"
   sodipodi:docname="watercolor_v2control.svg"
   inkscape:export-filename="/home/brian/Projects/MATLAB/crt_hue_scaling/img/stim/watercolor_v2control.png"
   inkscape:export-xdpi="108"
   inkscape:export-ydpi="108">
  <defs
     id="defs2">
    <inkscape:path-effect
       effect="bspline"
       id="path-effect923"
       is_visible="true"
       weight="33.333333"
       steps="2"
       helper_size="0"
       apply_no_weight="true"
       apply_with_weight="true"
       only_selected="false" />
    <inkscape:path-effect
       only_selected="false"
       apply_with_weight="true"
       apply_no_weight="true"
       helper_size="0"
       steps="2"
       weight="33.333333"
       is_visible="true"
       id="path-effect919"
       effect="bspline" />
    <inkscape:path-effect
       only_selected="false"
       apply_with_weight="true"
       apply_no_weight="true"
       helper_size="0"
       steps="2"
       weight="33.333333"
       is_visible="true"
       id="path-effect915"
       effect="bspline" />
    <inkscape:path-effect
       only_selected="false"
       apply_with_weight="true"
       apply_no_weight="true"
       helper_size="0"
       steps="2"
       weight="33.333333"
       is_visible="true"
       id="path-effect907"
       effect="bspline" />
    <inkscape:path-effect
       only_selected="false"
       apply_with_weight="true"
       apply_no_weight="true"
       helper_size="0"
       steps="2"
       weight="33.333333"
       is_visible="true"
       id="path-effect903"
       effect="bspline" />
    <inkscape:path-effect
       effect="bspline"
       id="path-effect899"
       is_visible="true"
       weight="33.333333"
       steps="2"
       helper_size="0"
       apply_no_weight="true"
       apply_with_weight="true"
       only_selected="false" />
    <inkscape:path-effect
       effect="bspline"
       id="path-effect888"
       is_visible="true"
       weight="33.333333"
       steps="2"
       helper_size="0"
       apply_no_weight="true"
       apply_with_weight="true"
       only_selected="false" />
    <inkscape:path-effect
       only_selected="false"
       apply_with_weight="true"
       apply_no_weight="true"
       helper_size="0"
       steps="2"
       weight="33.333333"
       is_visible="true"
       id="path-effect886"
       effect="bspline" />
    <inkscape:path-effect
       effect="bspline"
       id="path-effect861"
       is_visible="true"
       weight="33.333333"
       steps="2"
       helper_size="0"
       apply_no_weight="true"
       apply_with_weight="true"
       only_selected="false" />
    <inkscape:path-effect
       only_selected="false"
       apply_with_weight="true"
       apply_no_weight="true"
       helper_size="0"
       steps="2"
       weight="33.333333"
       is_visible="true"
       id="path-effect857"
       effect="bspline" />
    <inkscape:path-effect
       effect="bspline"
       id="path-effect853"
       is_visible="true"
       weight="33.333333"
       steps="2"
       helper_size="0"
       apply_no_weight="true"
       apply_with_weight="true"
       only_selected="false" />
    <inkscape:path-effect
       only_selected="false"
       apply_with_weight="true"
       apply_no_weight="true"
       helper_size="0"
       steps="2"
       weight="33.333333"
       is_visible="true"
       id="path-effect849"
       effect="bspline" />
    <inkscape:path-effect
       only_selected="false"
       apply_with_weight="true"
       apply_no_weight="true"
       helper_size="0"
       steps="2"
       weight="33.333333"
       is_visible="true"
       id="path-effect845"
       effect="bspline" />
    <inkscape:path-effect
       effect="bspline"
       id="path-effect841"
       is_visible="true"
       weight="33.333333"
       steps="2"
       helper_size="0"
       apply_no_weight="true"
       apply_with_weight="true"
       only_selected="false" />
    <inkscape:path-effect
       effect="spiro"
       id="path-effect837"
       is_visible="true" />
  </defs>
  <sodipodi:namedview
     id="base"
     pagecolor="#ffffff"
     bordercolor="#666666"
     borderopacity="1.0"
     inkscape:pageopacity="0.0"
     inkscape:pageshadow="2"
     inkscape:zoom="0.7"
     inkscape:cx="-163.74003"
     inkscape:cy="291.95785"
     inkscape:document-units="mm"
     inkscape:current-layer="g884"
     showgrid="false"
     inkscape:snap-global="false"
     inkscape:window-width="1853"
     inkscape:window-height="1145"
     inkscape:window-x="67"
     inkscape:window-y="27"
     inkscape:window-maximized="1"
     fit-margin-top="0"
     fit-margin-left="0"
     fit-margin-right="0"
     fit-margin-bottom="0" />
  <metadata
     id="metadata5">
    <rdf:RDF>
      <cc:Work
         rdf:about="">
        <dc:format>image/svg+xml</dc:format>
        <dc:type
           rdf:resource="http://purl.org/dc/dcmitype/StillImage" />
        <dc:title></dc:title>
      </cc:Work>
    </rdf:RDF>
  </metadata>
  <g
     inkscape:label="Layer 1"
     inkscape:groupmode="layer"
     id="layer1"
     transform="translate(-107.34744,-127.78272)">
    <g
       transform="translate(87.397136,71.895503)"
       id="g884">
      <path
         inkscape:original-d="m 39.865626,60.621617 c 2.67e-4,4.944944 2.67e-4,9.890152 0,14.835627 1.53198,-0.539772 3.063528,-1.079221 4.59489,-1.618431 -0.08981,-4.674753 -0.179924,-9.351209 -0.270287,-14.026412 1.711993,-0.269991 3.423911,-0.539744 5.135465,-0.809214 -0.08981,4.58448 -0.179922,9.170847 -0.270287,13.756672 1.71219,0.08964 3.42391,0.179559 5.135466,0.269738 2.68e-4,-4.854847 2.68e-4,-9.890686 0,-14.835627 1.531817,0.179549 3.063527,0.359384 4.59489,0.539476 -0.26998,4.494696 -0.540307,8.991024 -0.810864,13.486933 1.982499,-2.66e-4 3.964487,-2.66e-4 5.946329,0 -0.08981,-4.405403 -0.179923,-8.811727 -0.270286,-13.217192 2.072349,-2.67e-4 4.144677,-2.67e-4 6.216616,0 -0.540237,4.314993 -1.080886,8.631369 -1.621729,12.947455 2.072617,-2.68e-4 4.144681,-2.68e-4 6.21662,0 2.67e-4,-4.315526 2.67e-4,-8.631905 0,-12.947455 1.531803,-0.09016 3.063528,-0.180095 4.594892,-0.269741 2.67e-4,3.865277 2.67e-4,7.73224 0,11.598762 4.595478,-2.65e-4 9.190054,-2.65e-4 13.784679,0 -0.540277,2.337333 -1.080884,4.675204 -1.621726,7.013208 -3.874376,-0.359967 -7.747984,-0.71957 -11.622376,-1.078955 -0.270038,2.157778 -0.54031,4.31555 -0.810864,6.473728 3.784815,0.08965 7.568326,0.17956 11.352089,0.269738 -0.08982,1.70796 -0.179925,3.416425 -0.27029,5.125035 -3.423938,0.359442 -6.847023,0.719035 -10.270935,1.078954 -0.08984,1.528384 -0.179926,3.056773 -0.27029,4.585559 3.154208,0.17959 6.306984,0.359385 9.460074,0.539478 -0.540264,2.337282 -1.080884,4.675201 -1.621726,7.013197 -3.153512,-0.35995 -6.306449,-0.71956 -9.460074,-1.07894 2.68e-4,1.97795 2.68e-4,3.9559 0,5.93424 4.595781,0.0897 9.190055,0.17956 13.78468,0.26973 -0.270007,1.70799 -0.54031,3.41643 -0.810865,5.12504 -4.595438,-0.4499 -9.189519,-0.8994 -13.784678,-1.34868 2.67e-4,2.69725 2.67e-4,5.39449 0,8.09215 4.775826,-1.16924 9.550438,-2.33799 14.325255,-3.50661 -0.08982,1.79789 -0.179925,3.59627 -0.270289,5.39479 -4.595339,0.44937 -9.189517,0.89885 -13.78468,1.3487 2.68e-4,2.60735 2.68e-4,5.21466 0,7.82241 -1.89194,-2.7e-4 -3.783761,-2.7e-4 -5.676042,0 -0.179949,-4.13684 -0.360116,-8.27226 -0.540573,-12.40799 -1.981722,0.17956 -3.963954,0.3594 -5.946331,0.53949 0.09038,3.6867 0.180459,7.37258 0.270288,11.05928 -2.973106,-0.18009 -5.94606,-0.3599 -8.919493,-0.53948 1.171611,-4.04668 2.342761,-8.09242 3.513739,-12.13824 -2.792486,0.719 -5.585678,1.43835 -8.378919,2.15793 0.631011,4.49586 1.261614,8.99099 1.892015,13.48691 -2.072042,-0.35992 -4.144143,-0.71955 -6.216616,-1.07895 0.270583,-4.49638 0.540845,-8.99156 0.810863,-13.48694 -2.071808,0.26946 -4.144145,0.53922 -6.216615,0.80921 0.45081,3.23707 0.901227,6.47347 1.351437,9.71061 -2.612697,-0.44988 -5.225292,-0.8994 -7.838342,-1.34869 0.9013,-4.67613 1.802185,-9.35121 2.702876,-14.02642 -3.873601,0.17956 -7.747976,0.35939 -11.622367,0.53947 -0.720555,-2.9676 -1.441268,-5.93451 -2.162306,-8.90137 3.784054,0.71899 7.568327,1.43834 11.352083,2.15791 -0.270003,-2.69751 -0.540307,-5.39504 -0.810864,-8.092156 -3.9636,0.898783 -7.928168,1.618167 -11.892654,2.427656 -0.270041,-2.338193 -0.540308,-4.675744 -0.810865,-7.013212 4.054179,0.629062 8.108899,1.258514 12.162947,1.888169 -0.179915,-1.888335 -0.360117,-3.77661 -0.540577,-5.664514 -4.323786,-0.719475 -8.648938,-1.438873 -12.973807,-2.157907 -0.179934,-2.158283 -0.360117,-4.316087 -0.540576,-6.473729 5.315325,1.348276 10.631583,2.517294 15.946974,3.776343 -0.450198,-2.33792 -0.900693,-4.675738 -1.351442,-7.013205 -4.864474,-2.69e-4 -9.730087,-2.69e-4 -14.595532,0 1.17158,-2.248216 2.342761,-4.495911 3.51374,-6.743468 3.963922,1.528034 7.928706,3.056772 11.892656,4.585557 -2.882697,-4.495749 -5.76587,-8.991558 -8.649205,-13.486935 2.522915,-0.539734 5.045638,-1.079222 7.568056,-1.61843 0.720946,4.045314 1.441802,7.912067 2.1623,11.8685 0.721074,1.258582 1.441802,2.517296 2.162301,3.776343 0.360676,-5.125654 0.721035,-10.250335 1.081152,-15.375105 z"
         inkscape:path-effect="#path-effect919"
         inkscape:connector-curvature="0"
         id="path917"
         d="m 39.685444,65.656465 c 0.180182,-0.0899 0.180182,4.855304 0.946199,7.058232 0.766017,2.202928 2.297565,1.66348 3.018178,-0.943576 0.720613,-2.607056 0.630499,-7.283512 1.441467,-9.756001 0.810969,-2.472489 2.522887,-2.742243 3.333609,-0.58485 0.810723,2.157392 0.720611,6.743759 1.531648,9.08164 0.811037,2.33788 2.522757,2.427788 3.378543,0.04531 0.855785,-2.382474 0.855785,-7.418313 1.621676,-9.800862 0.765891,-2.382549 2.297601,-2.202714 2.928185,0.134525 0.630584,2.33724 0.360255,6.833568 1.216352,9.08153 0.856097,2.247962 2.838085,2.247962 3.783962,0.04526 0.945876,-2.202698 0.855769,-6.609022 1.846899,-8.811758 0.991129,-2.202735 3.063457,-2.202735 3.829192,-0.04525 0.765735,2.157482 0.225088,6.473858 0.99109,8.631916 0.766002,2.158057 2.838066,2.158057 3.874035,2.94e-4 1.03597,-2.157763 1.03597,-6.474142 1.801878,-8.676879 0.765909,-2.202738 2.297635,-2.292657 3.063309,-0.404967 0.765675,1.88769 0.765675,5.754653 3.063414,7.687914 2.297739,1.933261 6.892315,1.933261 8.919392,3.101905 2.027076,1.168644 1.48647,3.506515 -0.721056,4.495701 -2.207525,0.989186 -6.081133,0.629582 -8.153449,1.52862 -2.072317,0.899037 -2.342588,3.056809 -0.585346,4.180878 1.757241,1.124069 5.540753,1.21397 7.387599,2.112896 1.846847,0.898927 1.756744,2.607392 -2.68e-4,3.641543 -1.757012,1.034151 -5.180097,1.393744 -6.937109,2.33777 -1.757013,0.944025 -1.847102,2.472414 -0.315062,3.326751 1.532039,0.854338 4.684815,1.03413 5.991138,2.292654 1.306322,1.258525 0.765704,3.596444 -1.081392,4.585635 -1.847095,0.98918 -5.000033,0.62958 -6.576829,1.43872 -1.576796,0.80914 -1.576796,2.78709 0.721092,3.82122 2.297889,1.03414 6.892162,1.12404 9.054364,2.02297 2.162202,0.89893 1.891898,2.60737 -0.541002,3.23688 -2.432901,0.62951 -7.026984,0.18003 -9.324548,1.30387 -2.297565,1.12383 -2.297565,3.82107 0.09037,4.58537 2.387935,0.7643 7.162546,-0.40446 9.504894,-0.0899 2.342349,0.31454 2.252247,2.11292 -0.09047,3.23699 -2.342713,1.12407 -6.936889,1.57356 -9.234483,3.10204 -2.297594,1.52847 -2.297594,4.13578 -3.243564,5.43966 -0.94597,1.30387 -2.837791,1.30387 -3.874045,-0.76454 -1.036254,-2.06842 -1.21642,-6.20384 -2.29736,-8.18181 -1.080941,-1.97798 -3.063173,-1.79814 -4.00932,0.13515 -0.946148,1.93328 -0.856066,5.61916 -2.297575,7.37259 -1.44151,1.75344 -4.414464,1.57362 -5.315455,-0.53966 -0.900991,-2.11329 0.270157,-6.15903 -0.540486,-7.82233 -0.810642,-1.6633 -3.60383,-0.94393 -4.685121,1.66372 -1.08129,2.60764 -0.450689,7.10277 -1.171383,9.1709 -0.720693,2.06812 -2.792794,1.70849 -3.693839,-0.71955 -0.901045,-2.42805 -0.630786,-6.92323 -1.53154,-9.03607 -0.900754,-2.11284 -2.973092,-1.84308 -3.784085,-0.0896 -0.810992,1.75344 -0.360579,4.98984 -1.4417,6.38361 -1.08112,1.39377 -3.693713,0.94424 -4.549665,-1.61864 -0.855952,-2.56289 0.04493,-7.23797 -1.441414,-9.48566 -1.486345,-2.24768 -5.36072,-2.06785 -7.658354,-3.46169 -2.297634,-1.39384 -3.018351,-4.36075 -1.486715,-5.48457 1.531637,-1.12382 5.31591,-0.40447 7.072668,-1.39358 1.756758,-0.98911 1.486456,-3.68664 -0.639264,-4.628873 -2.12572,-0.942233 -6.07267,-0.136539 -8.190102,-0.900977 -2.117433,-0.764439 -2.3877,-3.10199 -0.495764,-3.95606 1.891936,-0.854071 5.946655,-0.224618 7.8836,-0.854094 1.936945,-0.629476 1.756742,-2.517751 -0.49526,-3.821305 -2.252003,-1.303553 -6.577156,-2.022947 -8.829675,-3.461745 -2.25252,-1.438799 -2.432703,-3.596603 0.144916,-4.043707 2.577619,-0.447104 7.873718,0.807046 10.306198,0.267483 2.43248,-0.539563 1.981983,-2.877381 -0.675474,-4.046144 -2.657457,-1.168763 -7.52307,-1.168763 -9.370053,-2.292897 -1.846983,-1.124135 -0.675803,-3.37183 1.891636,-3.731404 2.56744,-0.359573 6.532224,1.169164 7.072757,-0.31438 0.540534,-1.483543 -2.34264,-5.979352 -2.522673,-8.496907 -0.180033,-2.517556 2.34269,-3.057041 3.972124,-1.305505 1.629433,1.751536 2.334436,5.621177 3.055217,8.228747 0.720781,2.607571 1.441509,3.866284 1.982132,1.932881 0.540622,-1.933402 0.900981,-7.058083 1.081163,-7.147988 z"
         style="fill:none;stroke:#a035b6;stroke-width:2.11666656;stroke-linecap:butt;stroke-linejoin:miter;stroke-miterlimit:4;stroke-dasharray:none;stroke-opacity:1" />
      <path
         style="fill:none;stroke:#f9ca35;stroke-width:1.27852762;stroke-linecap:butt;stroke-linejoin:miter;stroke-miterlimit:4;stroke-dasharray:none;stroke-opacity:1"
         d="m 47.108568,62.82755 c 0.17282,-0.08577 0.17282,4.632212 0.907543,6.733921 0.734723,2.101709 2.2037,1.587047 2.894873,-0.90022 0.691172,-2.487267 0.604739,-6.94885 1.382576,-9.307734 0.777837,-2.358885 2.419814,-2.616244 3.197415,-0.557979 0.777601,2.058265 0.691171,6.433899 1.469075,8.664359 0.777903,2.230459 2.41969,2.316236 3.240513,0.04323 0.820822,-2.273003 0.820822,-7.077459 1.555424,-9.350534 0.734601,-2.273074 2.203732,-2.101503 2.808554,0.128344 0.604822,2.229847 0.345537,6.519579 1.16666,8.664252 0.821123,2.144673 2.722135,2.144673 3.629369,0.04318 0.907234,-2.101489 0.820807,-6.305354 1.771445,-8.406878 0.950639,-2.101525 2.938302,-2.101525 3.672754,-0.04317 0.734452,2.058351 0.215894,6.176401 0.9506,8.235299 0.734706,2.058898 2.72212,2.058898 3.715764,2.8e-4 0.993644,-2.058619 0.993644,-6.176667 1.728262,-8.278194 0.734618,-2.101528 2.203765,-2.187314 2.938159,-0.38636 0.734393,1.800955 0.734393,5.490241 2.938259,7.334672 2.203866,1.844431 6.610734,1.844431 8.554995,2.959378 1.944261,1.114947 1.425741,3.345398 -0.691597,4.289133 -2.117338,0.943734 -5.832691,0.600654 -7.820345,1.458382 -1.987653,0.857727 -2.246883,2.916357 -0.561433,3.988777 1.685451,1.07242 5.31439,1.158191 7.085785,2.015813 1.771395,0.857622 1.684973,2.487586 -2.58e-4,3.474221 -1.685232,0.986635 -4.968467,1.329705 -6.653698,2.230355 -1.68523,0.90065 -1.771639,2.358813 -0.30219,3.173895 1.469449,0.815082 4.493421,0.986613 5.746374,2.187311 1.252954,1.200698 0.734423,3.431193 -1.037212,4.374931 -1.771634,0.943738 -4.795763,0.600662 -6.308138,1.37262 -1.512375,0.771957 -1.512375,2.659005 0.691632,3.645622 2.204007,0.98663 6.610588,1.07239 8.684455,1.93002 2.073867,0.85762 1.814608,2.48756 -0.5189,3.08815 -2.333508,0.6006 -6.739901,0.17176 -8.9436,1.24397 -2.203699,1.07221 -2.203699,3.64549 0.08668,4.37467 2.290379,0.72919 6.869925,-0.38586 9.116577,-0.0858 2.246653,0.30007 2.16023,2.01584 -0.08677,3.08826 -2.247002,1.07243 -6.653487,1.50127 -8.857214,2.95951 -2.203726,1.45824 -2.203726,3.94577 -3.111049,5.18973 -0.907323,1.24396 -2.721855,1.24396 -3.715775,-0.72942 -0.99392,-1.97339 -1.166724,-5.91879 -2.2035,-7.80587 -1.036777,-1.88708 -2.938026,-1.7155 -3.845521,0.12894 -0.907496,1.84445 -0.821093,5.36098 -2.20371,7.03384 -1.382618,1.67287 -4.234114,1.50132 -5.098292,-0.51488 -0.864178,-2.01619 0.259122,-5.87603 -0.518402,-7.4629 -0.777523,-1.58687 -3.456603,-0.90057 -4.493716,1.58727 -1.037114,2.48784 -0.432275,6.77645 -1.123527,8.74954 -0.691252,1.97309 -2.6787,1.62998 -3.542933,-0.6865 -0.864232,-2.31647 -0.605013,-6.60512 -1.468968,-8.62088 -0.863954,-2.01576 -2.85163,-1.75839 -3.629491,-0.0855 -0.777861,1.67287 -0.345847,4.76057 -1.382797,6.0903 -1.03695,1.32974 -3.542809,0.90086 -4.363792,-1.54427 -0.820982,-2.44513 0.0431,-6.90541 -1.382525,-9.04981 -1.425621,-2.14441 -5.141712,-1.97284 -7.345476,-3.30263 -2.203763,-1.32979 -2.895037,-4.16038 -1.425974,-5.23256 1.469062,-1.072185 5.098726,-0.38589 6.783714,-1.329549 1.684989,-0.943663 1.425732,-3.517219 -0.613059,-4.416182 -2.03879,-0.898963 -5.824662,-0.130253 -7.855588,-0.859567 -2.030926,-0.729314 -2.290151,-2.959462 -0.475508,-3.77429 1.814643,-0.814827 5.703707,-0.214297 7.561519,-0.81485 1.857811,-0.600554 1.684972,-2.402064 -0.475026,-3.645723 -2.159997,-1.243659 -6.308449,-1.929998 -8.468943,-3.302688 -2.160494,-1.37269 -2.333316,-3.431346 0.1389,-3.857929 2.472216,-0.426583 7.552137,0.769986 9.88524,0.255217 2.333103,-0.514769 1.90101,-2.745175 -0.647878,-3.860236 -2.548889,-1.115061 -7.21572,-1.115061 -8.987246,-2.187542 -1.771526,-1.072481 -0.648192,-3.216902 1.814356,-3.559954 2.462548,-0.343051 6.265352,1.115444 6.783803,-0.299933 0.518451,-1.415377 -2.246931,-5.704611 -2.41961,-8.106492 -0.17268,-2.40188 2.246978,-2.916578 3.80984,-1.245536 1.562861,1.671041 2.239067,5.362912 2.930402,7.850671 0.691335,2.487759 1.382617,3.688634 1.901153,1.844067 0.518535,-1.844568 0.864171,-6.733782 1.036992,-6.819554 z"
         id="path921"
         inkscape:connector-curvature="0"
         inkscape:path-effect="#path-effect923"
         inkscape:original-d="m 47.281388,58.024044 c 2.57e-4,4.717733 2.57e-4,9.435718 0,14.153962 1.469395,-0.514973 2.938371,-1.029636 4.40717,-1.544069 -0.08611,-4.459959 -0.172574,-8.921541 -0.259245,-13.381929 1.642051,-0.257585 3.284028,-0.514943 4.925657,-0.772034 -0.08611,4.373835 -0.172571,8.749468 -0.259243,13.124582 1.64224,0.08553 3.284027,0.171311 4.925658,0.257347 2.57e-4,-4.631776 2.57e-4,-9.436232 0,-14.153961 1.469236,0.171298 2.938367,0.342869 4.407168,0.514688 -0.258949,4.288172 -0.518233,8.577904 -0.777736,12.867235 1.901507,-2.54e-4 3.802519,-2.54e-4 5.703395,0 -0.08611,-4.202983 -0.172574,-8.406847 -0.259245,-12.609891 1.987687,-2.55e-4 3.97535,-2.55e-4 5.962643,0 -0.518169,4.11673 -1.03673,8.234779 -1.555474,12.352548 1.987939,-2.55e-4 3.975353,-2.55e-4 5.962641,0 2.57e-4,-4.117237 2.57e-4,-8.235285 0,-12.352548 1.469221,-0.08605 2.938369,-0.171819 4.40717,-0.257344 2.57e-4,3.687675 2.57e-4,7.376961 0,11.065823 4.407732,-2.53e-4 8.8146,-2.53e-4 13.221513,0 -0.518204,2.229937 -1.036725,4.460388 -1.555471,6.690965 -3.71609,-0.343427 -7.431444,-0.686505 -11.14755,-1.029378 -0.259006,2.05863 -0.518235,4.11726 -0.777737,6.176272 3.630188,0.08553 7.259127,0.171312 10.888306,0.257347 -0.08615,1.629481 -0.172575,3.259445 -0.259247,4.889549 -3.284056,0.342931 -6.567292,0.685997 -9.851322,1.029379 -0.08617,1.458158 -0.172575,2.916321 -0.259248,4.374863 3.025345,0.17134 6.049317,0.342874 9.073589,0.514688 -0.518192,2.229891 -1.036725,4.460385 -1.555471,6.69096 -3.024678,-0.343417 -6.048803,-0.686524 -9.073588,-1.029364 2.57e-4,1.887061 2.57e-4,3.774109 0,5.661556 4.408022,0.0854 8.8146,0.17129 13.221513,0.25734 -0.258975,1.6295 -0.518235,3.25944 -0.777736,4.88956 -4.407694,-0.42926 -8.814087,-0.8581 -13.221514,-1.28673 2.57e-4,2.57335 2.57e-4,5.14663 0,7.72034 4.580713,-1.11553 9.16026,-2.23057 13.740005,-3.34547 -0.08615,1.71523 -0.172574,3.431 -0.259247,5.14689 -4.407599,0.4287 -8.814084,0.85754 -13.221513,1.28672 2.57e-4,2.48755 2.57e-4,4.97508 0,7.463 -1.814646,-2.6e-4 -3.629178,-2.6e-4 -5.444153,0 -0.172595,-3.94678 -0.345402,-7.89218 -0.518487,-11.83787 -1.900757,0.17129 -3.802007,0.34287 -5.703396,0.51472 0.08666,3.51728 0.173085,7.03381 0.259246,10.55111 -2.851642,-0.17181 -5.703137,-0.34338 -8.555091,-0.51469 1.123746,-3.86076 2.247047,-7.7206 3.370188,-11.58051 -2.678401,0.68593 -5.35748,1.37224 -8.036603,2.05875 0.605232,4.28931 1.210069,8.57792 1.814717,12.86725 -1.98739,-0.34339 -3.974838,-0.6865 -5.962641,-1.02938 0.25953,-4.28978 0.518748,-8.57843 0.777737,-12.86725 -1.987166,0.25708 -3.97484,0.51446 -5.962641,0.77204 0.432395,3.08831 0.864409,6.17601 1.296226,9.26442 -2.505958,-0.42919 -5.011817,-0.85807 -7.518109,-1.28673 0.864477,-4.46127 1.728557,-8.92155 2.592448,-13.38194 -3.715345,0.17131 -7.431436,0.34288 -11.14754,0.51469 -0.691115,-2.83123 -1.382384,-5.66182 -2.073966,-8.492364 3.629458,0.685967 7.259128,1.372234 10.888302,2.058764 -0.258971,-2.573571 -0.518231,-5.147126 -0.777738,-7.720329 -3.80167,0.857482 -7.604268,1.543819 -11.406788,2.316113 -0.259008,-2.230759 -0.518232,-4.460907 -0.777736,-6.690973 3.888549,0.600156 7.777614,1.200686 11.666034,1.801412 -0.172563,-1.801572 -0.345403,-3.603082 -0.518489,-5.404242 -4.14714,-0.686417 -8.295591,-1.37276 -12.443769,-2.058757 -0.172583,-2.059116 -0.345404,-4.117772 -0.518491,-6.176275 5.098172,1.286326 10.197235,2.401628 15.295469,3.602828 -0.431804,-2.230494 -0.863897,-4.4609 -1.29623,-6.690965 -4.665739,-2.55e-4 -9.33257,-2.55e-4 -13.999239,0 1.123713,-2.144912 2.247049,-4.289332 3.370188,-6.433619 3.801977,1.457825 7.604782,2.916319 11.406789,4.374863 -2.764927,-4.289181 -5.530309,-8.578415 -8.295847,-12.867239 2.419841,-0.514939 4.839499,-1.029636 7.258865,-1.54407 0.691495,3.85944 1.3829,7.548527 2.07396,11.323168 0.691617,1.200756 1.382899,2.401632 2.073964,3.602831 0.345938,-4.890143 0.691577,-9.779357 1.03698,-14.668652 z" />
    </g>
  </g>
</svg>
